<svg width="2129" height="1646" viewBox="0 0 2129 1646" fill="none" xmlns="http://www.w3.org/2000/svg">
<path d="M1879.05 585.85C1905.74 581.302 1901.49 541.904 1874.43 543.058C494.535 601.595 17.7678 997.409 0.0253683 1486.07C-0.212557 1492.41 1.24898 1502.59 3.32233 1508.6C51.4851 1649.16 363.201 1706.78 550.821 1560.52C564.349 1549.97 572.744 1534.22 574.784 1517.22C655.848 834.76 1401.64 667.259 1879.05 585.85Z" fill="#0E0E0E" style="mix-blend-mode:soft-light"/>
<path d="M742.555 643.133C1153.45 532.302 1497.46 499.521 1804.21 480.552C2169.08 457.985 2248.79 272.532 1923.61 4.92377C1914.1 -2.91514 1900.2 -1.18447 1892.72 8.62264C1634.71 347.562 1112.53 424.899 727.6 602.784C703.467 613.949 716.859 650.055 742.555 643.133Z" fill="#0E0E0E" style="mix-blend-mode:soft-light"/>
<path d="M1923.68 653.451C1790.55 1342.7 1130.85 1554.86 836.808 1347.62C831.574 1343.92 822.328 1342.83 816.448 1345.38C757.545 1370.76 733.515 1504.57 749.659 1584.04C750.645 1588.93 754.928 1595.1 759.108 1597.82C992.173 1747.33 1886.4 1555.47 1966.41 659.525C1968.85 632.208 1928.88 626.541 1923.68 653.485V653.451Z" fill="#0E0E0E" style="mix-blend-mode:soft-light"/>
<path d="M1245.46 849.388C1132.68 892.757 981.33 992.559 919.571 1085.54C858.459 1177.5 896.017 1259.49 979.902 1290.17C1257.7 1391.83 1737.73 1174.79 1834.66 689.149C1837.66 674.082 1824.47 660.746 1809.38 663.664C1710.47 682.735 1582.74 714.498 1503.88 743.241C1488.59 748.84 1484.51 768.827 1496.81 779.517C1759.65 1008.2 1229.38 1206.18 1274.56 872.396C1276.76 856.175 1260.79 843.45 1245.53 849.32L1245.46 849.388Z" fill="#0E0E0E" style="mix-blend-mode:soft-light"/>
</svg>
