<svg width="439" height="340" viewBox="0 0 439 340" fill="none" xmlns="http://www.w3.org/2000/svg">
<path d="M387.173 120.894C392.671 119.956 391.795 111.826 386.221 112.064C101.897 124.143 3.66099 205.823 0.00522706 306.662C-0.0437966 307.972 0.257349 310.073 0.684555 311.312C10.6083 340.317 74.8363 352.208 113.495 322.026C116.282 319.848 118.012 316.599 118.432 313.091C135.135 172.259 288.804 137.694 387.173 120.894Z" fill="white"/>
<path d="M153.005 132.716C237.669 109.845 308.55 103.081 371.756 99.1662C446.937 94.5094 463.36 56.2395 396.359 1.01606C394.398 -0.601565 391.533 -0.244426 389.993 1.77936C336.83 71.7225 229.237 87.6818 149.924 124.39C144.951 126.694 147.711 134.145 153.005 132.716Z" fill="white"/>
<path d="M396.369 134.844C368.936 277.076 233.008 320.857 172.421 278.092C171.343 277.328 169.438 277.104 168.226 277.629C156.09 282.867 151.138 310.479 154.465 326.879C154.668 327.888 155.55 329.162 156.412 329.723C204.434 360.577 388.686 320.983 405.172 136.097C405.676 130.46 397.44 129.291 396.369 134.851V134.844Z" fill="white"/>
<path d="M256.627 175.28C233.39 184.23 202.204 204.825 189.479 224.012C176.887 242.99 184.625 259.908 201.91 266.239C259.148 287.219 358.057 242.429 378.031 142.214C378.647 139.104 375.93 136.352 372.82 136.954C352.44 140.89 326.122 147.445 309.874 153.376C306.722 154.531 305.882 158.656 308.417 160.862C362.574 208.053 253.315 248.907 262.622 180.028C263.077 176.681 259.786 174.055 256.641 175.266L256.627 175.28Z" fill="white"/>
</svg>
