<svg width="40" height="31" viewBox="0 0 40 31" fill="none" xmlns="http://www.w3.org/2000/svg">
<path d="M35.3206 11.0329C35.8221 10.9473 35.7422 10.2053 35.2337 10.227C9.29577 11.3295 0.333981 18.7841 0.000476848 27.9872C-0.00399542 28.1068 0.0234771 28.2985 0.0624498 28.4116C0.967765 31.0588 6.82708 32.144 10.3538 29.3894C10.6081 29.1907 10.7659 28.8941 10.8042 28.5739C12.328 15.7208 26.3466 12.5662 35.3206 11.0329Z" fill="#B5B6B6"/>
<path d="M13.9565 12.1125C21.6801 10.0251 28.1464 9.40775 33.9124 9.05049C40.7709 8.62548 42.2691 5.13275 36.1568 0.0927319C35.9779 -0.0549023 35.7166 -0.0223078 35.5761 0.162395C30.7262 6.54582 20.9109 8.00235 13.6754 11.3526C13.2217 11.5628 13.4735 12.2428 13.9565 12.1125Z" fill="#B5B6B6"/>
<path d="M36.1604 12.3067C33.6578 25.2876 21.2575 29.2834 15.7304 25.3803C15.632 25.3107 15.4583 25.2902 15.3477 25.3381C14.2405 25.8162 13.7888 28.3362 14.0923 29.833C14.1108 29.925 14.1913 30.0413 14.2699 30.0925C18.6508 32.9084 35.4595 29.2949 36.9635 12.4211C37.0095 11.9066 36.2581 11.7999 36.1604 12.3073V12.3067Z" fill="#B5B6B6"/>
<path d="M23.4117 15.9976C21.2918 16.8144 18.4468 18.694 17.2859 20.4452C16.1372 22.1772 16.8432 23.7213 18.42 24.299C23.6417 26.2138 32.6648 22.1261 34.4869 12.9798C34.5431 12.696 34.2952 12.4448 34.0116 12.4998C32.1524 12.859 29.7514 13.4572 28.2692 13.9985C27.9817 14.104 27.905 14.4804 28.1363 14.6817C33.0769 18.9887 23.1095 22.7172 23.9585 16.431C24.0001 16.1255 23.6998 15.8858 23.4129 15.9964L23.4117 15.9976Z" fill="#B5B6B6"/>
</svg>
