<svg width="272" height="61" viewBox="0 0 272 61" fill="none" xmlns="http://www.w3.org/2000/svg">
<path d="M68.857 21.5095C69.8347 21.3426 69.679 19.8961 68.6876 19.9384C18.122 22.0877 0.651091 36.6202 0.000929608 54.5617C-0.00778903 54.7947 0.0457683 55.1685 0.121745 55.389C1.88665 60.5497 13.3093 62.6653 20.1846 57.2953C20.6803 56.9078 20.9879 56.3297 21.0627 55.7055C24.0332 30.6485 51.3624 24.4985 68.857 21.5095Z" fill="#B6B6B6"/>
<path d="M27.211 23.6131C42.268 19.5439 54.8739 18.3403 66.1147 17.6438C79.4854 16.8153 82.4061 10.0062 70.4903 0.18078C70.1415 -0.107031 69.6321 -0.0434887 69.3581 0.316587C59.9033 12.761 40.7684 15.6005 26.6629 22.1317C25.7786 22.5416 26.2693 23.8673 27.211 23.6131Z" fill="#B6B6B6"/>
<path d="M70.4924 23.9912C65.6137 49.2974 41.4394 57.087 30.6644 49.4781C30.4726 49.3423 30.1339 49.3024 29.9184 49.3959C27.7599 50.3278 26.8793 55.2406 27.4709 58.1585C27.5071 58.3379 27.664 58.5647 27.8172 58.6644C36.3577 64.154 69.1261 57.1095 72.058 24.2143C72.1477 23.2113 70.683 23.0032 70.4924 23.9925V23.9912Z" fill="#B6B6B6"/>
<path d="M45.6395 31.1854C41.5069 32.7777 35.9606 36.442 33.6975 39.8559C31.458 43.2324 32.8343 46.2425 35.9083 47.3689C46.0879 51.1017 63.6784 43.1327 67.2306 25.3021C67.3402 24.7489 66.8569 24.2593 66.3039 24.3664C62.6795 25.0666 57.9988 26.2328 55.1092 27.2881C54.5487 27.4937 54.3993 28.2276 54.8501 28.62C64.4817 37.0164 45.0504 44.2852 46.7057 32.0301C46.7866 31.4346 46.2012 30.9674 45.642 31.1829L45.6395 31.1854Z" fill="#B6B6B6"/>
<path d="M254.596 55.2168C251.368 55.2168 248.865 54.8191 247.087 54.0237C245.356 53.1815 244.209 51.8949 243.648 50.1637C243.133 48.3858 243.18 45.9996 243.788 43.0052L250.526 8.125H260.211L253.403 42.6543C253.123 44.1515 253.099 45.2744 253.333 46.023C253.567 46.7248 254.058 47.1927 254.807 47.4267C255.555 47.6606 256.678 47.7776 258.176 47.7776C259.673 47.7776 260.959 47.7308 262.036 47.6372C263.158 47.5436 264.632 47.3565 266.457 47.0757L265.053 54.1641C262.199 54.8659 258.714 55.2168 254.596 55.2168ZM238.034 18.7224H272.001L270.598 26.0915H236.63L238.034 18.7224Z" fill="#B6B6B6"/>
<path d="M214.76 14.5113C215.321 11.6105 216.14 9.41149 217.216 7.91428C218.339 6.37029 219.742 5.31756 221.427 4.75611C223.158 4.14787 225.357 3.84375 228.024 3.84375C230.129 3.84375 231.884 3.89054 233.288 3.98412C234.691 4.07769 236.516 4.21805 238.762 4.4052C238.855 4.4052 238.949 4.4286 239.042 4.47538L237.709 11.4935C235.463 11.3532 233.592 11.283 232.094 11.283C230.176 11.283 228.702 11.3766 227.673 11.5637C226.69 11.7509 225.918 12.1486 225.357 12.7568C224.842 13.365 224.468 14.3242 224.234 15.6342L216.725 54.585H207.11L214.76 14.5113ZM204.513 18.7222H236.305L234.902 26.0913H203.039L204.513 18.7222ZM200.443 47.1458H229.498L228.024 54.585H198.969L200.443 47.1458Z" fill="#B6B6B6"/>
<path d="M178.714 20.7617C177.311 21.5103 175.533 22.0484 173.381 22.3759C171.228 22.7034 168.538 22.8671 165.31 22.8671L166.854 14.7261C170.363 14.7261 173.217 14.4454 175.416 13.8839C177.662 13.2757 179.416 12.3633 180.68 11.1468C181.943 9.88355 182.879 8.1992 183.487 6.09375H191.909L182.504 54.5892H172.188L178.714 20.7617ZM160.818 46.0972H195.067L193.453 54.5892H159.134L160.818 46.0972Z" fill="#B6B6B6"/>
<path d="M133.895 4.41016H143.51L133.684 54.59H124.069L133.895 4.41016ZM150.387 33.1144C150.855 30.7282 150.668 28.8801 149.826 27.5701C149.031 26.2132 147.627 25.5348 145.615 25.5348C144.305 25.5348 143.112 25.8389 142.036 26.4472C141.006 27.0086 140.141 27.8274 139.439 28.9035C138.784 29.9796 138.316 31.1961 138.035 32.5529H134.105L136.141 22.5872H140.141C141.357 21.09 142.831 19.8735 144.562 18.9377C146.34 18.002 148.352 17.5341 150.598 17.5341C153.031 17.5341 155.066 18.0956 156.704 19.2185C158.388 20.2946 159.558 21.862 160.213 23.9206C160.868 25.9325 160.915 28.2953 160.353 31.009L155.791 54.59H146.177L150.387 33.1144Z" fill="#B6B6B6"/>
<path d="M105.5 55.636C101.85 55.636 98.809 55.0746 96.376 53.9517C93.9899 52.782 92.2353 51.2146 91.1124 49.2495C89.9895 47.2844 89.4748 45.1088 89.5684 42.7226H98.7622C98.7622 44.0327 99.0429 45.1322 99.6044 46.0212C100.166 46.9101 100.985 47.5886 102.061 48.0564C103.184 48.5243 104.517 48.7583 106.061 48.7583C108.026 48.7583 109.523 48.4073 110.553 47.7055C111.629 46.9569 112.167 45.9276 112.167 44.6175C112.167 43.8689 111.956 43.2607 111.535 42.7928C111.114 42.2782 110.436 41.8337 109.5 41.4594C108.611 41.0383 107.254 40.5236 105.429 39.9154C105.055 39.7282 104.611 39.5879 104.096 39.4943L103.675 39.3539C101.429 38.5585 99.581 37.7865 98.1306 37.0379C96.6801 36.2893 95.4637 35.2366 94.4811 33.8798C93.5454 32.5229 93.0775 30.8152 93.0775 28.7565C93.0775 25.0135 94.5279 22.2296 97.4287 20.4049C100.33 18.5334 103.956 17.5977 108.307 17.5977C111.348 17.5977 114.062 18.0655 116.448 19.0013C118.834 19.8903 120.682 21.2471 121.992 23.0718C123.302 24.8497 123.864 26.9786 123.677 29.4583H114.553C114.6 27.9143 114.109 26.6745 113.079 25.7387C112.05 24.803 110.506 24.3351 108.447 24.3351C106.81 24.3351 105.5 24.6626 104.517 25.3176C103.535 25.9259 103.043 26.8148 103.043 27.9845C103.043 28.6395 103.207 29.1776 103.535 29.5987C103.909 30.0198 104.447 30.3941 105.149 30.7216C105.897 31.0491 107.09 31.517 108.728 32.1252C109.243 32.2656 109.734 32.4294 110.202 32.6165C110.389 32.6633 110.576 32.7335 110.763 32.827C113.617 33.8564 115.816 34.8155 117.36 35.7045C118.904 36.5467 120.074 37.576 120.869 38.7925C121.665 39.9622 122.062 41.4594 122.062 43.2841C122.062 45.6703 121.407 47.7991 120.097 49.6706C118.834 51.5421 116.939 53.0159 114.413 54.0921C111.933 55.1214 108.962 55.636 105.5 55.636Z" fill="#B6B6B6"/>
</svg>
