<svg width="140" height="31" viewBox="0 0 140 31" fill="none" xmlns="http://www.w3.org/2000/svg">
<g clip-path="url(#clip0_810_587)">
<path d="M35.3206 11.0329C35.8221 10.9473 35.7422 10.2053 35.2337 10.227C9.29577 11.3295 0.333981 18.7841 0.000476848 27.9872C-0.00399542 28.1068 0.0234771 28.2985 0.0624498 28.4116C0.967765 31.0588 6.82708 32.144 10.3538 29.3894C10.6081 29.1907 10.7659 28.8941 10.8042 28.5739C12.328 15.7208 26.3466 12.5662 35.3206 11.0329Z" fill="white"/>
<path d="M13.9565 12.1125C21.6801 10.0251 28.1464 9.40775 33.9124 9.05049C40.7709 8.62548 42.2691 5.13275 36.1568 0.0927319C35.9779 -0.0549023 35.7166 -0.0223078 35.5761 0.162395C30.7262 6.54582 20.9109 8.00235 13.6754 11.3526C13.2217 11.5628 13.4735 12.2428 13.9565 12.1125Z" fill="white"/>
<path d="M36.1604 12.3067C33.6578 25.2876 21.2575 29.2834 15.7304 25.3803C15.632 25.3107 15.4583 25.2902 15.3477 25.3381C14.2405 25.8162 13.7888 28.3362 14.0923 29.833C14.1108 29.925 14.1913 30.0413 14.2699 30.0925C18.6508 32.9084 35.4595 29.2949 36.9635 12.4211C37.0095 11.9066 36.2582 11.7999 36.1604 12.3073V12.3067Z" fill="white"/>
<path d="M23.4117 15.9976C21.2918 16.8144 18.4468 18.694 17.2859 20.4452C16.1372 22.1772 16.8432 23.7213 18.42 24.299C23.6417 26.2138 32.6648 22.1261 34.4869 12.9798C34.5431 12.696 34.2952 12.4448 34.0116 12.4998C32.1524 12.859 29.7514 13.4572 28.2692 13.9985C27.9817 14.104 27.905 14.4804 28.1363 14.6817C33.0769 18.9887 23.1095 22.7172 23.9585 16.431C24.0001 16.1255 23.6998 15.8858 23.4129 15.9964L23.4117 15.9976Z" fill="white"/>
</g>
<path d="M130.595 28.324C128.939 28.324 127.655 28.12 126.743 27.712C125.855 27.28 125.267 26.62 124.979 25.732C124.715 24.82 124.739 23.596 125.051 22.06L128.507 4.16797H133.475L129.983 21.88C129.839 22.648 129.827 23.224 129.947 23.608C130.067 23.968 130.319 24.208 130.703 24.328C131.087 24.448 131.663 24.508 132.431 24.508C133.199 24.508 133.859 24.484 134.411 24.436C134.987 24.388 135.743 24.292 136.679 24.148L135.959 27.784C134.495 28.144 132.707 28.324 130.595 28.324ZM122.099 9.60397H139.523L138.803 13.384H121.379L122.099 9.60397Z" fill="white"/>
<path d="M110.161 7.44466C110.449 5.95666 110.869 4.82866 111.421 4.06066C111.997 3.26866 112.717 2.72866 113.581 2.44066C114.469 2.12866 115.597 1.97266 116.965 1.97266C118.045 1.97266 118.945 1.99666 119.665 2.04466C120.385 2.09266 121.321 2.16466 122.473 2.26066C122.521 2.26066 122.569 2.27266 122.617 2.29666L121.933 5.89666C120.781 5.82466 119.821 5.78866 119.053 5.78866C118.069 5.78866 117.313 5.83666 116.785 5.93266C116.281 6.02866 115.885 6.23266 115.597 6.54466C115.333 6.85666 115.141 7.34866 115.021 8.02066L111.169 28.0007H106.237L110.161 7.44466ZM104.905 9.60466H121.213L120.493 13.3847H104.149L104.905 9.60466ZM102.817 24.1847H117.721L116.965 28.0007H102.061L102.817 24.1847Z" fill="white"/>
<path d="M91.671 10.649C90.951 11.033 90.039 11.309 88.935 11.477C87.831 11.645 86.451 11.729 84.795 11.729L85.587 7.553C87.387 7.553 88.851 7.409 89.979 7.121C91.131 6.809 92.031 6.341 92.679 5.717C93.327 5.069 93.807 4.205 94.119 3.125H98.439L93.615 28.001H88.323L91.671 10.649ZM82.491 23.645H100.059L99.231 28.001H81.627L82.491 23.645Z" fill="white"/>
<path d="M68.6806 2.25977H73.6126L68.5726 27.9998H63.6406L68.6806 2.25977ZM77.1406 16.9838C77.3806 15.7598 77.2846 14.8118 76.8526 14.1398C76.4446 13.4438 75.7246 13.0958 74.6926 13.0958C74.0206 13.0958 73.4086 13.2518 72.8566 13.5638C72.3286 13.8518 71.8846 14.2718 71.5246 14.8238C71.1886 15.3758 70.9486 15.9998 70.8046 16.6958H68.7886L69.8326 11.5838H71.8846C72.5086 10.8158 73.2646 10.1918 74.1526 9.71177C75.0646 9.23177 76.0966 8.99177 77.2486 8.99177C78.4966 8.99177 79.5406 9.27977 80.3806 9.85577C81.2446 10.4078 81.8446 11.2118 82.1806 12.2678C82.5166 13.2998 82.5406 14.5118 82.2526 15.9038L79.9126 27.9998H74.9806L77.1406 16.9838Z" fill="white"/>
<path d="M54.115 28.5413C52.243 28.5413 50.683 28.2533 49.435 27.6773C48.211 27.0773 47.311 26.2733 46.735 25.2653C46.159 24.2573 45.895 23.1413 45.943 21.9173H50.659C50.659 22.5893 50.803 23.1533 51.091 23.6093C51.379 24.0653 51.799 24.4133 52.351 24.6533C52.927 24.8933 53.611 25.0133 54.403 25.0133C55.411 25.0133 56.179 24.8333 56.707 24.4733C57.259 24.0893 57.535 23.5613 57.535 22.8893C57.535 22.5053 57.427 22.1933 57.211 21.9533C56.995 21.6893 56.647 21.4613 56.167 21.2693C55.711 21.0533 55.015 20.7893 54.079 20.4773C53.887 20.3813 53.659 20.3093 53.395 20.2613L53.179 20.1893C52.027 19.7813 51.079 19.3853 50.335 19.0013C49.591 18.6173 48.967 18.0773 48.463 17.3813C47.983 16.6853 47.743 15.8093 47.743 14.7533C47.743 12.8333 48.487 11.4053 49.975 10.4693C51.463 9.5093 53.323 9.0293 55.555 9.0293C57.115 9.0293 58.507 9.2693 59.731 9.7493C60.955 10.2053 61.903 10.9013 62.575 11.8373C63.247 12.7493 63.535 13.8413 63.439 15.1133H58.759C58.783 14.3213 58.531 13.6853 58.003 13.2053C57.475 12.7253 56.683 12.4853 55.627 12.4853C54.787 12.4853 54.115 12.6533 53.611 12.9893C53.107 13.3013 52.855 13.7573 52.855 14.3573C52.855 14.6933 52.939 14.9693 53.107 15.1853C53.299 15.4013 53.575 15.5933 53.935 15.7613C54.319 15.9293 54.931 16.1693 55.771 16.4813C56.035 16.5533 56.287 16.6373 56.527 16.7333C56.623 16.7573 56.719 16.7933 56.815 16.8413C58.279 17.3693 59.407 17.8613 60.199 18.3173C60.991 18.7493 61.591 19.2773 61.999 19.9013C62.407 20.5013 62.611 21.2693 62.611 22.2053C62.611 23.4293 62.275 24.5213 61.603 25.4813C60.955 26.4413 59.983 27.1973 58.687 27.7493C57.415 28.2773 55.891 28.5413 54.115 28.5413Z" fill="white"/>
<defs>
<clipPath id="clip0_810_587">
<rect width="40" height="31" fill="white"/>
</clipPath>
</defs>
</svg>
