<svg xmlns="http://www.w3.org/2000/svg" viewBox="0 0 2594.18 3825.45"><defs><style>.cls-1{fill:#fff;}</style></defs><g id="Слой_2" data-name="Слой 2"><g id="EMPLOYER"><path class="cls-1" d="M2587.08,3186.88c-1.38-89.15-18.78-177.4-52.51-259.93-53.33-130.46-106.05-193.21-197.4-277.88-56.65-52.5-134.05-107.37-201.23-145.48-179.6-101.87-356.47-157.34-531.08-186.69-50.23-8.45-96.36,27.83-101.63,78.49-.08.73-.17,1.46-.26,2.19-7.14,55-53.24,118-201.55,119.62-148.32-1.62-194.42-64.58-201.55-119.62-.2-1.49-.35-3-.47-4.48-4-50.64-51-86.79-101.18-78.8-179.75,28.63-361.91,84.33-546.95,189.29-67.18,38.11-144.58,93-201.23,145.48C158.69,2733.74,106,2796.49,52.65,2927,18.91,3009.48,1.51,3097.73.14,3186.88c-1.75,113.34,13.13,190.35,48.73,264.45,49.45,102.94,132.81,185.39,235.61,235.12,295.49,142.93,783.58,135.5,1009.13,139,225.54-3.5,713.63,3.93,1009.12-139,102.8-49.73,186.17-132.18,235.61-235.12C2573.94,3377.23,2588.83,3300.22,2587.08,3186.88Zm-1041.76-33.69c-7.15,144.27-158,312-243.9,313.33-85.94-1.28-236.75-169.06-243.9-313.33-4.65-148.66,66.61-430.25,155.33-544.86,6.37-8.76,21.31-23.69,85.67-26,1.93-.07,3.87-.07,5.8,0,64.35,2.3,79.29,17.23,85.67,26C1478.71,2722.94,1550,3004.53,1545.32,3153.19Z"/><path class="cls-1" d="M1301.42,1362c-289.89,0-566.84-26.26-797.73-74.86-44.1-9.28-85.84,23.92-86.36,69-2.36,204.52,29,393.72,102.17,518.49,114.5,195.3,298,249.23,324.88,258,142.66,46.56,353.34,48.83,457,50,103.7-1.19,314.38-3.46,457-50,26.88-8.77,210.38-62.7,324.88-258,73.14-124.77,104.52-314,102.16-518.49-.52-45.06-42.26-78.26-86.36-69C1868.25,1335.77,1591.3,1362,1301.42,1362Z"/><path class="cls-1" d="M2180.24,588.79A73.67,73.67,0,0,1,2126,527.87l-52-353.33C2068,131.66,1884.29,7.69,1301.42,0,718.54,7.69,534.84,131.66,528.78,174.54l-52,353.33a73.66,73.66,0,0,1-54.21,60.92C168,655.72,8.65,751.37,8.65,857.56,8.65,1060,587.44,1224,1301.42,1224S2594.18,1060,2594.18,857.56C2594.18,751.37,2434.84,655.72,2180.24,588.79Z"/></g></g></svg>