<svg xmlns="http://www.w3.org/2000/svg" viewBox="0 0 2587.21 3918.37"><defs><style>.cls-1{fill:#fff;}</style></defs><g id="Слой_2" data-name="Слой 2"><g id="STAFF"><g id="Слой_1_копия3_" data-name="Слой 1 (копия3)"><path class="cls-1" d="M1292.4,2020.45h0Z"/></g><path class="cls-1" d="M1475.39,2418l15.44,6.84a59.43,59.43,0,0,1,32.54,72.43l-161.69,506.09c-21.17,66.3-115,66.3-136.15,0l-161.69-506.09a59.44,59.44,0,0,1,32.54-72.43l15.44-6.84a267,267,0,0,1,64.61-19.34l22.13-3.67a580.77,580.77,0,0,1,190.09,0l22.14,3.67A267.07,267.07,0,0,1,1475.39,2418Z"/><path class="cls-1" d="M1752.49,2658.1c2.67-22-21.65-36.76-41-47.61-20.36-11.43-22.44-40.27-3.73-54.24,9.55-7.13,17.42-16,21.86-27.08,4.16-10.35,4.41-23.42,2.19-37.64-4.32-27.63,21.68-50.42,48.62-42.92a1566.27,1566.27,0,0,1,355.49,147.82c67.18,38.1,144.58,93,201.23,145.48,91.35,84.66,144.07,147.42,197.4,277.88,33.73,82.52,51.13,170.78,52.51,259.92,1.75,113.35-13.14,190.36-48.74,264.46-49.44,102.94-132.81,185.39-235.61,235.11-295.49,142.94-783.58,135.51-1009.12,139-225.55-3.5-713.64,3.93-1009.13-139-102.8-49.72-186.16-132.17-235.61-235.11-35.6-74.1-50.48-151.11-48.73-264.46,1.37-89.14,18.77-177.4,52.51-259.92,53.32-130.46,106-193.22,197.39-277.88,56.65-52.5,134-107.38,201.23-145.48a1566.33,1566.33,0,0,1,355.5-147.82c26.94-7.5,52.94,15.29,48.62,42.92-2.23,14.22-2,27.29,2.18,37.64,4.44,11.06,12.31,19.95,21.87,27.08,18.7,14,16.62,42.81-3.74,54.24-19.33,10.85-43.65,25.64-41,47.61,21.83,179.3,245.34,483.61,339.33,637.85,56.43,92.62,182.66,92.62,239.09,0C1507.14,3141.71,1730.65,2837.4,1752.49,2658.1Z"/><path class="cls-1" d="M1298.85,3918.37l-5.24-.08-5.25.08Z"/><path class="cls-1" d="M419.4,1268.18h0a21,21,0,0,0,20.85,23H541a21,21,0,0,0,21-21v-75.64a121.78,121.78,0,0,1,121.78-121.78h402.07a121.92,121.92,0,0,1,121.77,121.78h0a35.17,35.17,0,0,0,35.17,35.17h101.64a35.17,35.17,0,0,0,35.17-35.17h0a121.92,121.92,0,0,1,121.77-121.78h402.07a121.78,121.78,0,0,1,121.78,121.78v75.64a21,21,0,0,0,21,21h102.39a21,21,0,0,0,21-21.25c-.05-5.32-.21-10-.28-11.73-6.88-172.12,222.07-601.69-61.08-951.17C1793.15-55.95,1182.52-26.56,821.51,43.67c-14.48,2.81-16.11,22.87-2.28,28l110.75,41c11.54,4.28,9.84,21.11-2.32,23-137.95,21.2-564,119.22-608.87,443.21C294.52,831.27,441.75,962.33,419.4,1268.18Z"/><path class="cls-1" d="M1573.2,1476.24a182.22,182.22,0,0,0,128.1,53.61c101.15.6,183.92-83.3,183.92-184.46v-97.45a35.17,35.17,0,0,0-35.17-35.17H1554.77a35.16,35.16,0,0,0-35.17,35.17V1347A182.23,182.23,0,0,0,1573.2,1476.24Z"/><path class="cls-1" d="M2029.82,1431.2a20.92,20.92,0,0,0-20,14.46q-4.41,13.69-10,27.06a322.86,322.86,0,0,1-616-73.37,35.21,35.21,0,0,0-34.72-29.63H1238.14a35.22,35.22,0,0,0-34.73,29.63,322.92,322.92,0,0,1-616,73.37q-5.65-13.35-10-27.06a20.94,20.94,0,0,0-20-14.46H430.61a21.19,21.19,0,0,0-21.17,21c-1.42,201.33,30.09,387.09,102.25,510.17,114.5,195.3,298,249.23,324.88,258,142.66,46.56,353.34,48.83,457,50,103.7-1.19,314.38-3.46,457-50,26.88-8.77,210.38-62.7,324.88-258,72.17-123.11,103.67-308.94,102.23-510.32a21,21,0,0,0-21-20.9Z"/><path class="cls-1" d="M885.91,1529.85A183,183,0,0,0,1067.62,1347v-99.1a35.17,35.17,0,0,0-35.17-35.17H737.17A35.16,35.16,0,0,0,702,1247.94v97.45C702,1446.55,784.76,1530.45,885.91,1529.85Z"/></g></g></svg>