<svg xmlns="http://www.w3.org/2000/svg" viewBox="0 0 2588.34 3924.38"><defs><style>.cls-1{fill:#fff;}</style></defs><g id="Слой_2" data-name="Слой 2"><g id="STUDENT"><g id="Слой_1_копия_" data-name="Слой 1 (копия)"><path class="cls-1" d="M1293,2026.46h0Z"/><path class="cls-1" d="M2076.09,1968.43c-114.5,195.3-298,249.23-324.88,258-142.66,46.56-353.34,48.83-457,50-103.7-1.19-314.38-3.46-457-50-26.88-8.77-210.38-62.7-324.88-258-93.79-160-118.91-425.91-92.28-694.24,3.6-36.35,43-57.39,75.13-40.08l655.42,352.6A316,316,0,0,0,1300,1623.93c50.83,0,101.59-12,146.86-36.12l647.52-344.52c32.24-17.15,71.5,4,75,40.4C2194.4,1548.78,2168.78,1810.33,2076.09,1968.43Z"/><path class="cls-1" d="M2514.89,635.67,1371.49,20.56c-50.41-27.12-114.17-27.43-164.22-.8L72,623.81C-24.63,675.21-23.83,796,73.45,848.3l1143.4,615.11c50.41,27.12,114.17,27.43,164.22.8L2516.38,860.16C2613,808.76,2612.17,688,2514.89,635.67Z"/></g><g id="Слой_4" data-name="Слой 4"><path class="cls-1" d="M1299.42,3924.38c-223.14-3.71-716.57,5-1014.37-139.09-102.81-49.73-186.17-132.18-235.62-235.11C13.84,3476.07-1,3399.07.7,3285.72c1.38-89.14,18.78-177.4,52.51-259.93,53.32-130.46,106-193.21,197.4-277.87,56.64-52.51,134.05-107.38,201.23-145.49,287.14-162.86,567.32-207.14,842.39-215.68h-.11c275.06,8.54,555.25,52.82,842.38,215.68,67.19,38.11,144.59,93,201.24,145.49,91.34,84.66,144.07,147.41,197.39,277.87,33.73,82.53,51.13,170.79,52.51,259.93,1.75,113.35-13.14,190.35-48.73,264.46-49.45,102.93-132.81,185.38-235.61,235.11-297.81,144.05-791.23,135.38-1014.38,139.09Z"/></g></g></g></svg>