<svg width="122" height="122" viewBox="0 0 122 122" fill="none" xmlns="http://www.w3.org/2000/svg">
<path d="M113.311 61C113.311 32.1093 89.8907 8.68879 61 8.68879C32.1093 8.68879 8.68879 32.1093 8.68879 61C8.68879 89.8907 32.1093 113.311 61 113.311C89.8907 113.311 113.311 89.8907 113.311 61ZM121 61C121 94.1371 94.1371 121 61 121C27.8629 121 1 94.1371 1 61C1 27.8629 27.8629 1 61 1C94.1371 1 121 27.8629 121 61Z" fill="#B6B6B6"/>
<path d="M120 61C120 28.4152 93.5848 2 61 2C28.4152 2 2 28.4152 2 61C2 93.5848 28.4152 120 61 120C93.5848 120 120 93.5848 120 61ZM112.312 61C112.312 32.6616 89.3384 9.68848 61 9.68848C32.6616 9.68848 9.68848 32.6616 9.68848 61C9.68848 89.3384 32.6616 112.312 61 112.312C89.3384 112.312 112.312 89.3384 112.312 61ZM114.312 61C114.312 90.443 90.443 114.312 61 114.312C31.557 114.312 7.68848 90.443 7.68848 61C7.68848 31.557 31.557 7.68848 61 7.68848C90.443 7.68848 114.312 31.557 114.312 61ZM122 61C122 94.6894 94.6894 122 61 122C27.3106 122 0 94.6894 0 61C1.15982e-06 27.3106 27.3106 1.15967e-06 61 0C94.6894 0 122 27.3106 122 61Z" fill="#B6B6B6"/>
<path d="M61.9781 61.4833C70.4409 61.4833 77.3246 52.5015 77.3246 44.0394C77.3246 35.5773 70.4409 28.6914 61.9781 28.6914C53.5153 28.6914 46.6309 35.5773 46.6309 44.0394C46.6323 52.5007 53.516 61.4833 61.9781 61.4833Z" fill="#B6B6B6"/>
<path d="M76.8424 64.4013C74.7395 63.7763 72.5447 64.4775 70.5767 65.4467C68.2228 66.6059 65.576 67.2578 62.7799 67.2578H61.1643C58.3678 67.2578 55.7206 66.6056 53.3668 65.4465C51.3988 64.4774 49.204 63.7763 47.1013 64.4012C39.0758 66.7863 33.3076 72.8404 33.3076 81.7992C33.3076 87.3821 46.1409 91.9092 61.9721 91.9092C77.8026 91.9092 90.6366 87.3821 90.6366 81.7992C90.6366 72.8404 84.8679 66.7863 76.8424 64.4013Z" fill="#B6B6B6"/>
</svg>
