<svg width="123" height="120" viewBox="0 0 123 120" fill="none" xmlns="http://www.w3.org/2000/svg">
<path d="M122.308 34.6172V120H36.9229V34.6172H122.308ZM46.9177 110.005H112.313V44.6118H46.9177V110.005Z" fill="#B6B6B6"/>
<path d="M82.5471 44.9991C82.5471 25.4026 66.2533 9.51642 46.1539 9.51642C26.0544 9.51642 9.76064 25.4026 9.76064 44.9991C9.76064 64.5956 26.0544 80.4818 46.1539 80.4818V89.9982C20.6638 89.9982 0 69.8514 0 44.9991C0 20.1468 20.6638 0 46.1539 0C71.644 0 92.3077 20.1468 92.3077 44.9991C92.3077 69.8514 71.644 89.9982 46.1539 89.9982V80.4818C66.2533 80.4818 82.5471 64.5956 82.5471 44.9991Z" fill="#B6B6B6"/>
</svg>
