<svg width="120" height="120" viewBox="0 0 120 120" fill="none" xmlns="http://www.w3.org/2000/svg">
<path fill-rule="evenodd" clip-rule="evenodd" d="M60.0021 0C26.9146 0 0 26.9137 0 60C0 68.0109 1.58793 75.6536 4.44909 82.6463C4.52488 82.9021 4.62437 83.1501 4.74626 83.3873C13.8798 104.885 35.2077 120 60.0021 120C84.9019 120 106.299 104.755 115.367 83.1113C115.398 83.0381 115.427 82.9641 115.455 82.8893C118.379 75.8314 120 68.1032 120 60C120 26.9137 93.0896 0 60.0021 0ZM60.0021 8.57574C62.298 8.57574 64.6016 9.53796 67.1047 11.8318C69.6079 14.1257 72.1298 17.7348 74.2827 22.3994C75.8742 25.8474 77.2607 29.8627 78.3803 34.294H41.603C42.7226 29.8627 44.1091 25.8474 45.7005 22.3994C47.8535 17.7348 50.3796 14.1257 52.8827 11.8318C55.3859 9.53796 57.7062 8.57574 60.0021 8.57574ZM78.2296 11.8988C89.3863 16.1158 98.6723 24.0911 104.56 34.294H87.1906C85.8842 28.609 84.1747 23.3737 82.0676 18.8087C80.9089 16.2982 79.6234 14.0009 78.2296 11.8988ZM41.7495 11.903C40.3569 14.0038 39.0735 16.3001 37.9157 18.8087C35.8086 23.3738 34.0991 28.6089 32.7927 34.294H15.4316C21.3195 24.0966 30.5981 16.1214 41.7495 11.903ZM11.4848 42.853H31.1772C30.4017 48.2866 29.9927 54.0392 29.9927 60C29.9927 65.9608 30.4017 71.7133 31.1772 77.147H11.4848C9.59444 71.7856 8.55917 66.0172 8.55917 60C8.55917 53.9825 9.59424 48.2146 11.4848 42.853ZM39.887 42.853H80.0963C80.935 48.2233 81.4189 53.9831 81.4189 60C81.4189 66.0169 80.935 71.7767 80.0963 77.147H39.887C39.0483 71.7767 38.5644 66.0168 38.5644 60C38.5644 53.9832 39.0483 48.2232 39.887 42.853ZM88.8061 42.853H108.503C110.392 48.2146 111.428 53.9826 111.428 60C111.428 66.017 110.392 71.7857 108.503 77.147H88.8061C89.5816 71.7133 89.9948 65.9608 89.9948 60C89.9948 54.0392 89.5816 48.2866 88.8061 42.853ZM15.44 85.7225H32.7969C34.1029 91.4017 35.8105 96.6302 37.9157 101.191C39.0735 103.7 40.3569 105.996 41.7495 108.097C30.604 103.881 21.3283 95.9122 15.44 85.7225ZM41.6072 85.7225H78.3761C77.2572 90.147 75.8721 94.1569 74.2827 97.6003C72.1298 102.265 69.6079 105.887 67.1047 108.181C64.6016 110.474 62.298 111.424 60.0021 111.424C57.7062 111.424 55.3859 110.474 52.8827 108.181C50.3796 105.887 47.8535 102.265 45.7005 97.6003C44.1112 94.1569 42.726 90.147 41.6072 85.7225ZM87.1906 85.7225H104.547C98.6592 95.9168 89.3798 103.887 78.2296 108.101C79.6234 105.999 80.9089 103.702 82.0676 101.191C84.1729 96.6301 85.8846 91.4019 87.1906 85.7225Z" fill="#B6B6B6"/>
</svg>
