<svg xmlns="http://www.w3.org/2000/svg" viewBox="0 0 100 100"><defs><style>.cls-1{fill:#c4c4c4;fill-rule:evenodd;}</style></defs><g id="Слой_2" data-name="Слой 2"><g id="Слой_1-2" data-name="Слой 1"><path class="cls-1" d="M7,7c-7,7-7,18.34-7,41v4C0,74.63,0,85.94,7,93s18.34,7,41,7h4c22.63,0,33.94,0,41-7s7-18.34,7-41V48c0-22.63,0-33.94-7-41S74.63,0,52,0H48C25.37,0,14.06,0,7,7Zm9.85,23.39C17.42,56.42,30.42,72,53.21,72H54.5V57.17c8.38.83,14.71,7,17.25,14.87H83.58A32.89,32.89,0,0,0,66.46,51.17c5.33-3.09,12.83-10.59,14.62-20.75H70.33C68,38.67,61.08,46.17,54.5,46.88V30.42H43.75V59.25c-6.67-1.67-15.08-9.75-15.46-28.83Z"/></g></g></svg>