<svg width="39" height="40" viewBox="0 0 39 40" fill="none" xmlns="http://www.w3.org/2000/svg">
<path d="M38.1611 8.9873V30.9893L19.2305 39.6689L0.299805 30.9893V8.98828L19.2305 0.328125L38.1611 8.9873ZM3.54688 28.8008L3.72266 28.8809L17.6094 35.2363V19.1025L17.4336 19.0225L3.54688 12.667V28.8008ZM20.8545 19.1025V35.2363L34.916 28.8008V12.667L20.8545 19.1025ZM19.1055 4.04688L6.5293 9.81152L5.93457 10.085L19.1055 16.1221L19.2305 16.1797L19.3555 16.1221L32.1074 10.2773L32.5312 10.0703L32.1074 9.87109L31.9316 9.79102L19.3555 4.0459L19.2305 3.98926L19.1055 4.04688Z" fill="#B6B6B6"/>
</svg>
