<svg width="41" height="40" viewBox="0 0 41 40" fill="none" xmlns="http://www.w3.org/2000/svg">
<path d="M40.8844 11.5391V40.0009H12.4229V11.5391H40.8844ZM15.7545 36.6692H37.5527V14.8707H15.7545V36.6692Z" fill="#B6B6B6"/>
<path d="M27.6309 15.0001C27.6309 8.46776 22.1996 3.17223 15.4998 3.17223C8.80003 3.17223 3.36877 8.46776 3.36877 15.0001C3.36877 21.5325 8.80003 26.828 15.4998 26.828V30.0003C7.00315 30.0003 0.115234 23.2845 0.115234 15.0001C0.115234 6.71579 7.00315 0 15.4998 0C23.9965 0 30.8844 6.71579 30.8844 15.0001C30.8844 23.2845 23.9965 30.0003 15.4998 30.0003V26.828C22.1996 26.828 27.6309 21.5325 27.6309 15.0001Z" fill="#B6B6B6"/>
</svg>
