<svg width="33" height="26" viewBox="0 0 33 26" fill="none" xmlns="http://www.w3.org/2000/svg">
<path d="M27.9541 2.17749C25.818 1.16025 23.5339 0.420959 21.146 0C20.8527 0.539654 20.5101 1.2655 20.2739 1.84291C17.7354 1.45436 15.2203 1.45436 12.7286 1.84291C12.4924 1.2655 12.142 0.539654 11.8461 0C9.45561 0.420959 7.16891 1.16297 5.03277 2.18288C0.724134 8.8097 -0.443865 15.2719 0.140135 21.6424C2.99785 23.8144 5.76731 25.1339 8.49004 25.9973C9.1623 25.0556 9.76186 24.0546 10.2784 22.9996C9.29466 22.6192 8.35248 22.1497 7.46223 21.6046C7.69841 21.4265 7.92943 21.2404 8.15262 21.0488C13.5825 23.6337 19.4822 23.6337 24.8473 21.0488C25.0731 21.2404 25.3041 21.4265 25.5377 21.6046C24.6448 22.1523 23.7 22.6218 22.7163 23.0023C23.2328 24.0546 23.8298 25.0584 24.5046 26C27.23 25.1366 30.002 23.8172 32.8597 21.6424C33.545 14.2574 31.6892 7.85452 27.9541 2.17749ZM11.0181 17.7246C9.38812 17.7246 8.05138 16.1758 8.05138 14.2898C8.05138 12.4037 9.35957 10.8522 11.0181 10.8522C12.6767 10.8522 14.0134 12.401 13.9848 14.2898C13.9874 16.1758 12.6767 17.7246 11.0181 17.7246ZM21.9818 17.7246C20.3518 17.7246 19.015 16.1758 19.015 14.2898C19.015 12.4037 20.3232 10.8522 21.9818 10.8522C23.6403 10.8522 24.977 12.401 24.9485 14.2898C24.9485 16.1758 23.6403 17.7246 21.9818 17.7246Z" fill="#B5B6B6"/>
</svg>
