<svg width="37" height="25" viewBox="0 0 37 25" fill="none" xmlns="http://www.w3.org/2000/svg">
<path d="M2.775 0C2.41149 0 2.06643 0.079375 1.74883 0.210337L17.4449 14.4682C18.1234 15.0843 18.8461 15.0848 19.5262 14.4682L35.2512 0.210337C34.9336 0.079375 34.5885 0 34.225 0H2.775ZM0.0289063 2.47894C0.0114099 2.61038 0 2.74803 0 2.88462V22.1154C0 23.7134 1.23768 25 2.775 25H34.225C35.7623 25 37 23.7134 37 22.1154V2.88462C37 2.74803 36.9886 2.61038 36.9711 2.47894L21.3473 16.6466C19.7172 18.1246 17.2538 18.1269 15.6238 16.6466L0.0289063 2.47894Z" fill="#B6B6B6"/>
</svg>
