<svg width="33" height="22" viewBox="0 0 33 22" fill="none" xmlns="http://www.w3.org/2000/svg">
<path d="M2.475 0C2.15079 0 1.84303 0.06985 1.55977 0.185096L15.559 12.732C16.1641 13.2742 16.8087 13.2746 17.4152 12.732L31.4402 0.185096C31.157 0.06985 30.8492 0 30.525 0H2.475ZM0.0257812 2.18146C0.0101764 2.29713 0 2.41827 0 2.53846V19.4615C0 20.8678 1.10387 22 2.475 22H30.525C31.8961 22 33 20.8678 33 19.4615V2.53846C33 2.41827 32.9898 2.29713 32.9742 2.18146L19.0395 14.649C17.5856 15.9496 15.3885 15.9517 13.9348 14.649L0.0257812 2.18146Z" fill="white"/>
</svg>
