<svg width="26" height="25" viewBox="0 0 26 25" fill="none" xmlns="http://www.w3.org/2000/svg">
<path d="M25.0956 5.90188V2.90188H14.3V0H11.2956V2.90125H0.5V5.90125H18.055C16.7319 8.81375 14.9512 11.4656 12.7981 13.7413C11.2456 12.1 9.88625 10.2644 8.75312 8.27563H5.3475C6.74062 11.0487 8.51875 13.5887 10.6181 15.8075C10.5131 15.8969 10.4075 15.9856 10.3006 16.0731L3.27 21.855L5.18 24.1706L12.2106 18.3888C12.4081 18.2262 12.6031 18.0606 12.7962 17.8931C12.99 18.0606 13.1856 18.2262 13.3831 18.3888L16.6637 21.0869L17.7444 18.0894L15.2925 16.0731C15.1856 15.9856 15.0812 15.8956 14.9756 15.8062C17.6612 12.9688 19.8206 9.605 21.3206 5.90125H25.0937L25.0956 5.90188Z" fill="#B5B6B6"/>
</svg>
