<svg width="40" height="40" viewBox="0 0 40 40" fill="none" xmlns="http://www.w3.org/2000/svg">
<path d="M30.6982 14.9844L39.5732 39.7021H35.6514L34.166 35.3623H23.4512L21.9658 39.7021H18.0439L26.9551 14.9844H30.6982ZM28.5586 20.6426L28.4883 20.8438L24.6191 31.9844H32.9961L32.8584 31.5859L29.1279 20.8438L29.0576 20.6426H28.5586Z" fill="#B5B6B6"/>
<path d="M16.9502 0.300781V3.92871H30.4443V7.07715H25.8232L25.7471 7.26465C23.8859 11.8601 21.2068 16.0335 17.876 19.5527L17.6582 19.7822L17.9004 19.9873C18.0293 20.0964 18.164 20.212 18.2998 20.3232L21.2002 22.709L20.0654 25.8574L16.2939 22.7549C16.0493 22.5536 15.807 22.3476 15.5664 22.1396L15.3701 21.9697L15.1738 22.1406L14.4473 22.7549L5.89062 29.791L3.88477 27.3594L12.4414 20.3242L12.4404 20.3232C12.5758 20.2124 12.7097 20.1007 12.8418 19.9883L13.083 19.7832L12.8652 19.5537C10.3718 16.9185 8.24456 13.9166 6.55078 10.6455H10.1436C11.5541 13.0936 13.2367 15.3566 15.1543 17.3838L15.3721 17.6143L15.5908 17.3838C18.3053 14.5149 20.5494 11.1722 22.2168 7.50195L22.4092 7.07715H0.299805V3.92773H13.7939V0.300781H16.9502Z" fill="#B5B6B6"/>
</svg>
