<svg width="40" height="40" viewBox="0 0 40 40" fill="none" xmlns="http://www.w3.org/2000/svg">
<path fill-rule="evenodd" clip-rule="evenodd" d="M14.7158 22.837L34.0909 3.46204H25.8685V0H38.2698C39.2261 0 40 0.775624 40 1.73014V14.1313H36.5379V5.90905L17.1628 25.284L14.7158 22.837ZM36.0693 21.9657H32.6072V34.1121C32.6072 35.4438 31.511 36.5382 30.1811 36.5382H5.88807C4.55636 36.5382 3.46194 35.4438 3.46194 34.1121V9.81931C3.46194 8.48762 4.55636 7.3932 5.88807 7.3932H18.0346V3.93116H5.88807C2.6456 3.93116 0 6.57682 0 9.81917V34.112C0 37.3544 2.64745 40 5.88807 40H30.1811C33.4236 40 36.0692 37.3543 36.0692 34.112L36.0709 21.9656L36.0693 21.9657Z" fill="#B6B6B6"/>
</svg>
