<svg width="31" height="31" viewBox="0 0 31 31" fill="none" xmlns="http://www.w3.org/2000/svg">
<path d="M15.417 0C23.9502 0 30.8682 6.91787 30.8682 15.4512C30.868 23.9843 23.9501 30.9023 15.417 30.9023C8.4545 30.9023 2.56814 26.2921 0.637695 19.9609L6.48047 22.3721C6.77023 23.6892 7.67819 24.8442 9.01172 25.3994C10.0609 25.8353 11.2406 25.8372 12.291 25.4043C13.3413 24.9713 14.1769 24.1384 14.6143 23.0898C14.8474 22.5315 14.9599 21.9301 14.9443 21.3252L20.3486 17.46L20.4814 17.4619C23.7189 17.4619 26.3506 14.8229 26.3506 11.5811C26.3505 8.33932 23.7237 5.70988 20.4814 5.70312C17.2455 5.70314 14.6124 8.33933 14.6123 11.5811H14.6172L14.6191 11.6572L10.8379 17.1494C10.2258 17.1215 9.61149 17.2298 9.02832 17.4697C8.77467 17.5728 8.53243 17.702 8.30566 17.8555L0.00488281 14.4346C0.00302628 14.4315 0.00186077 14.4279 0 14.4248C0.52919 6.37052 7.22905 5.59206e-05 15.417 0ZM9.4873 18.3447C10.2492 18.055 11.1156 18.0453 11.9258 18.3818C12.7466 18.7213 13.3749 19.3603 13.7109 20.1777C14.047 20.9952 14.045 21.8969 13.7061 22.7109L13.6406 22.8662C12.8873 24.4489 11.0179 25.1739 9.38672 24.4941C8.63969 24.1801 8.03433 23.6025 7.68555 22.8711L9.5957 23.6631C9.89085 23.7859 10.2076 23.8491 10.5273 23.8496C10.8469 23.8501 11.1635 23.7879 11.459 23.666C11.7545 23.5441 12.0236 23.3654 12.25 23.1396C12.4763 22.9139 12.6556 22.6448 12.7783 22.3496C13.0265 21.7532 13.0279 21.0828 12.7822 20.4854C12.5365 19.8879 12.0638 19.4123 11.4678 19.1631L9.4873 18.3447ZM20.4863 7.66602C21.5237 7.66857 22.5179 8.08235 23.251 8.81641C23.984 9.55043 24.3963 10.5447 24.3975 11.582C24.3966 12.6195 23.9848 13.6144 23.252 14.3486C22.5189 15.0829 21.5239 15.4965 20.4863 15.499C19.4491 15.4961 18.4554 15.0827 17.7227 14.3486C16.9898 13.6144 16.578 12.6194 16.5771 11.582C16.5783 10.5449 16.9899 9.55039 17.7227 8.81641C18.4554 8.08248 19.4493 7.66894 20.4863 7.66602ZM20.4922 8.63281C19.7129 8.63419 18.9664 8.94537 18.416 9.49707C17.8655 10.0489 17.556 10.7967 17.5566 11.5762C17.5563 12.3554 17.8655 13.1027 18.416 13.6543C18.9665 14.2058 19.713 14.5163 20.4922 14.5176C21.2717 14.5168 22.0195 14.2069 22.5703 13.6553C23.1211 13.1037 23.43 12.3557 23.4297 11.5762C23.4297 9.9514 22.1121 8.63281 20.4922 8.63281Z" fill="#B6B6B6"/>
</svg>
