<svg width="33" height="27" viewBox="0 0 33 27" fill="none" xmlns="http://www.w3.org/2000/svg">
<path fill-rule="evenodd" clip-rule="evenodd" d="M2.26805 11.6237C11.1266 7.81284 17.0332 5.30157 19.9888 4.08754C28.4284 0.622392 30.1816 0.020062 31.3246 0.00014061C31.5763 -0.00337493 32.1377 0.0575606 32.5022 0.34935C32.8096 0.595438 32.8939 0.928243 32.9342 1.16144C32.9746 1.39581 33.0256 1.92666 32.9853 2.34266C32.5283 7.0863 30.5495 18.5973 29.543 23.9105C29.1168 26.1593 28.2776 26.9128 27.4657 26.9866C25.7018 27.1471 24.3617 25.8347 22.6524 24.7284C19.9781 22.9988 18.4671 21.9207 15.8711 20.2321C12.8703 18.2798 14.8158 17.2075 16.5251 15.4545C16.9726 14.9951 24.7475 8.01323 24.8982 7.38043C24.9172 7.30074 24.935 7.00544 24.757 6.84958C24.5789 6.69373 24.3166 6.74763 24.1279 6.78982C23.8596 6.84958 19.5876 9.63741 11.3106 15.1533C10.0975 15.9759 8.99835 16.3755 8.01432 16.3556C6.9294 16.3322 4.84266 15.7498 3.29125 15.2517C1.38848 14.6412 -0.123755 14.3178 0.00800226 13.2807C0.0756613 12.7405 0.829407 12.1885 2.26805 11.6237Z" fill="#B6B6B6"/>
</svg>
