<svg width="33" height="28" viewBox="0 0 33 28" fill="none" xmlns="http://www.w3.org/2000/svg">
<path fill-rule="evenodd" clip-rule="evenodd" d="M2.26805 12.1237C11.1266 8.31284 17.0332 5.80157 19.9888 4.58754C28.4284 1.12239 30.1816 0.520062 31.3246 0.500141C31.5763 0.496625 32.1377 0.557561 32.5022 0.84935C32.8096 1.09544 32.8939 1.42824 32.9342 1.66144C32.9746 1.89581 33.0256 2.42666 32.9853 2.84266C32.5283 7.5863 30.5495 19.0973 29.543 24.4105C29.1168 26.6593 28.2776 27.4128 27.4657 27.4866C25.7018 27.6471 24.3617 26.3347 22.6524 25.2284C19.9781 23.4988 18.4671 22.4207 15.8711 20.7321C12.8703 18.7798 14.8158 17.7075 16.5251 15.9545C16.9726 15.4951 24.7475 8.51323 24.8982 7.88043C24.9172 7.80074 24.935 7.50544 24.757 7.34958C24.5789 7.19373 24.3166 7.24763 24.1279 7.28982C23.8596 7.34958 19.5876 10.1374 11.3106 15.6533C10.0975 16.4759 8.99835 16.8755 8.01432 16.8556C6.9294 16.8322 4.84266 16.2498 3.29125 15.7517C1.38848 15.1412 -0.123755 14.8178 0.00800226 13.7807C0.0756613 13.2405 0.829407 12.6885 2.26805 12.1237Z" fill="white"/>
</svg>
