<svg width="41" height="40" viewBox="0 0 41 40" fill="none" xmlns="http://www.w3.org/2000/svg">
<path fill-rule="evenodd" clip-rule="evenodd" d="M20.5007 0C9.47154 0 0.5 8.97124 0.5 20C0.5 22.6703 1.02931 25.2179 1.98303 27.5488C2.00829 27.634 2.04146 27.7167 2.08209 27.7958C5.12659 34.9618 12.2359 40 20.5007 40C28.8006 40 35.9329 34.9184 38.9556 27.7038C38.966 27.6794 38.9758 27.6547 38.9849 27.6298C39.9595 25.2771 40.5 22.7011 40.5 20C40.5 8.97124 31.5299 0 20.5007 0ZM20.5007 2.85858C21.266 2.85858 22.0339 3.17932 22.8682 3.94394C23.7026 4.70857 24.5433 5.91161 25.2609 7.46648C25.7914 8.6158 26.2536 9.95423 26.6268 11.4313H14.3677C14.7409 9.95423 15.203 8.6158 15.7335 7.46648C16.4512 5.91161 17.2932 4.70857 18.1276 3.94394C18.962 3.17932 19.7354 2.85858 20.5007 2.85858ZM26.5765 3.96627C30.2954 5.37193 33.3908 8.03035 35.3533 11.4313H29.5635C29.1281 9.53633 28.5582 7.79125 27.8559 6.26956C27.4696 5.43275 27.0411 4.66697 26.5765 3.96627ZM14.4165 3.96767C13.9523 4.66793 13.5245 5.43337 13.1386 6.26956C12.4362 7.79128 11.8664 9.5363 11.4309 11.4313H5.64387C7.6065 8.03219 10.6994 5.37381 14.4165 3.96767ZM4.32826 14.2843H10.8924C10.6339 16.0955 10.4976 18.0131 10.4976 20C10.4976 21.9869 10.6339 23.9044 10.8924 25.7157H4.32826C3.69815 23.9285 3.35306 22.0057 3.35306 20C3.35306 17.9942 3.69808 16.0716 4.32826 14.2843ZM13.7957 14.2843H27.1988C27.4783 16.0744 27.6396 17.9944 27.6396 20C27.6396 22.0056 27.4783 23.9256 27.1988 25.7157H13.7957C13.5161 23.9256 13.3548 22.0056 13.3548 20C13.3548 17.9944 13.5161 16.0744 13.7957 14.2843ZM30.102 14.2843H36.6676C37.2973 16.0715 37.6428 17.9942 37.6428 20C37.6428 22.0057 37.2973 23.9286 36.6676 25.7157H30.102C30.3605 23.9044 30.4983 21.9869 30.4983 20C30.4983 18.0131 30.3605 16.0955 30.102 14.2843ZM5.64666 28.5742H11.4323C11.8676 30.4672 12.4368 32.2101 13.1386 33.7304C13.5245 34.5666 13.9523 35.332 14.4165 36.0323C10.7013 34.6269 7.60945 31.9707 5.64666 28.5742ZM14.3691 28.5742H26.6254C26.2524 30.049 25.7907 31.3856 25.2609 32.5334C24.5433 34.0883 23.7026 35.2956 22.8682 36.0602C22.0339 36.8248 21.266 37.1414 20.5007 37.1414C19.7354 37.1414 18.962 36.8248 18.1276 36.0602C17.2932 35.2956 16.4512 34.0883 15.7335 32.5334C15.2037 31.3856 14.742 30.049 14.3691 28.5742ZM29.5635 28.5742H35.3492C33.3864 31.9723 30.2933 34.6289 26.5765 36.0337C27.0411 35.333 27.4696 34.5672 27.8559 33.7304C28.5576 32.21 29.1282 30.4673 29.5635 28.5742Z" fill="#B6B6B6"/>
</svg>
