<svg xmlns="http://www.w3.org/2000/svg" viewBox="0 0 1936.23 1934.89"><defs><style>.cls-1{fill:#fff;}</style></defs><g id="Слой_2" data-name="Слой 2"><g id="Слой_1-2" data-name="Слой 1"><path class="cls-1" d="M1388.67,34.59a2566.68,2566.68,0,0,0-839.92,0,624,624,0,0,0-514,514,2557.08,2557.08,0,0,0,0,840.23,624.05,624.05,0,0,0,514,514,2562.23,2562.23,0,0,0,420,32,2560.24,2560.24,0,0,0,420-34.77,623.75,623.75,0,0,0,514-514,2560.45,2560.45,0,0,0,33.56-418.75,2560.24,2560.24,0,0,0-34.77-420A623.73,623.73,0,0,0,1388.67,34.59Zm275.44,1313.1a382.17,382.17,0,0,1-315.35,315,2323.38,2323.38,0,0,1-760.41,0,382.16,382.16,0,0,1-315-315.35,2314,2314,0,0,1,0-760.4,382.16,382.16,0,0,1,315-315,2314.09,2314.09,0,0,1,760.41,0,381.87,381.87,0,0,1,315.35,315.35,2319.26,2319.26,0,0,1,30.23,380.05A2320.81,2320.81,0,0,1,1664.11,1347.69Z"/><path class="cls-1" d="M968.11,929.45a120.94,120.94,0,0,0-120.94,120.94V1322.5a120.94,120.94,0,1,0,241.88,0V1050.39A120.93,120.93,0,0,0,968.11,929.45Z"/><circle class="cls-1" cx="968.11" cy="639.1" r="120.94"/></g></g></svg>