<svg xmlns="http://www.w3.org/2000/svg" viewBox="0 0 1936.23 1934.89"><defs><style>.cls-1{fill:#fff;}</style></defs><g id="Слой_2" data-name="Слой 2"><g id="Слой_1_копия2_" data-name="Слой 1 (копия2)"><path class="cls-1" d="M1388.67,34.59a2566.68,2566.68,0,0,0-839.92,0,624,624,0,0,0-514,514,2557.08,2557.08,0,0,0,0,840.23,624.05,624.05,0,0,0,514,514,2562.23,2562.23,0,0,0,420,32,2560.24,2560.24,0,0,0,420-34.77,623.75,623.75,0,0,0,514-514,2560.45,2560.45,0,0,0,33.56-418.75,2560.24,2560.24,0,0,0-34.77-420A623.73,623.73,0,0,0,1388.67,34.59Zm275.44,1313.1a382.17,382.17,0,0,1-315.35,315,2323.38,2323.38,0,0,1-760.41,0,382.16,382.16,0,0,1-315-315.35,2314,2314,0,0,1,0-760.4,382.16,382.16,0,0,1,315-315,2314.09,2314.09,0,0,1,760.41,0,381.87,381.87,0,0,1,315.35,315.35,2319.26,2319.26,0,0,1,30.23,380.05A2320.81,2320.81,0,0,1,1664.11,1347.69Z"/><circle class="cls-1" cx="968.11" cy="1382.47" r="120.94"/><path class="cls-1" d="M1202,979.4c-27.46,15.44-56.85,26.92-86.15,38.4-16.67,6.53-27.54,23.76-27.35,41.65v0c2.29,104.23-133,161.2-204.83,85.94-55-50.57-41.83-183.38-4.57-242.32,47.73-83.84,136.89-93.43,212.07-137.38a43,43,0,0,0,11.2-9.43c40.41-48.09-35-85.21-79.77-89.31a240.27,240.27,0,0,0-60,1.45c-40.19,5.89-77.79,23.36-108.85,49.54-34.27,28.9-62.67,56.79-127.06,41-55.24-15.88-98.26-73.47-86-131.66C655.8,525.87,801.68,458.09,892.16,437.57,1081.91,390.08,1338,487,1350.9,705.92,1363.46,817.83,1299.71,926.44,1202,979.4Z"/></g></g></svg>