<?xml version="1.0" encoding="UTF-8"?>
<svg id="Layer_2" data-name="Layer 2" xmlns="http://www.w3.org/2000/svg" viewBox="0 0 95.08 66.9">
  <defs>
    <style>
      .cls-1 {
        fill: #fff;
      }
    </style>
  </defs>
  <g id="Layer_1-2" data-name="Layer 1">
    <g>
      <path class="cls-1" d="M94.17,30.8c-.8-1-21-24.5-46.5-24.5-5.3,0-10.3,1-15,2.6l33,25c.7-2,1.1-4.1,1.1-6.3,0-3.5-1-6.7-2.6-9.5,9.7,4.4,17.6,11.5,21.4,15.3-2.1,2.1-5.5,5.2-9.7,8.3l6.7,5.1c6.9-5.4,11.2-10.4,11.6-10.8,1.2-1.5,1.2-3.7,0-5.2Z"/>
      <path class="cls-1" d="M88.77,59.6L11.27.8c-1.8-1.3-4.3-1-5.6.8-1.3,1.8-1,4.3.8,5.6l11.7,8.9C7.97,22.7,1.47,30.3.97,30.8c-1.3,1.5-1.3,3.7,0,5.2.8,1,21,24.5,46.6,24.5,8,0,15.4-2.3,21.9-5.4l14.4,11c.7.5,1.6.8,2.4.8,1.2,0,2.4-.5,3.2-1.6,1.4-1.9,1-4.4-.7-5.7ZM47.57,52.4c-17.2,0-32.3-13.3-38-19,2.9-3,8.4-7.9,15.4-12.1l3.9,2.9c-.2,1.2-.3,2.3-.3,3.5,0,10.5,8.5,19,19,19,3,0,5.8-.7,8.3-2l6.2,4.7c-4.5,1.9-9.4,3-14.5,3Z"/>
    </g>
  </g>
</svg>