<svg xmlns="http://www.w3.org/2000/svg" viewBox="0 0 87.82 84.4"><defs><style>.cls-1{fill:#fff;fill-rule:evenodd;}</style></defs><g id="Слой_2" data-name="Слой 2"><g id="Слой_1-2" data-name="Слой 1"><path class="cls-1" d="M43.84,14.83H27.52A4.52,4.52,0,0,0,23,19.35a3.13,3.13,0,0,1-6.25,0A10.77,10.77,0,0,1,27.52,8.58H44.07A10.77,10.77,0,0,1,58,.53L80.39,7.86A10.77,10.77,0,0,1,87.82,18.1V65.88a10.78,10.78,0,0,1-7.26,10.18L58.13,83.81a10.77,10.77,0,0,1-14-7.8H27.52A10.77,10.77,0,0,1,16.74,65.24a3.13,3.13,0,1,1,6.25,0,4.52,4.52,0,0,0,4.53,4.52H43.84Zm6.25-4.06V73.63a4.53,4.53,0,0,0,6,4.28l22.43-7.75a4.53,4.53,0,0,0,3-4.28V18.1a4.52,4.52,0,0,0-3.11-4.3L56,6.48a4.52,4.52,0,0,0-5.93,4.29ZM22.71,45.41H3.12a3.13,3.13,0,0,1,0-6.25H22.71L17,33.4A3.13,3.13,0,1,1,21.37,29l11.1,11.1a3.09,3.09,0,0,1,.91,2.21,3.15,3.15,0,0,1-.91,2.21L21.37,55.6A3.13,3.13,0,1,1,17,51.17Z"/></g></g></svg>