<svg xmlns="http://www.w3.org/2000/svg" viewBox="0 0 1224.58 1344.01"><defs><style>.cls-1{fill:#f4a09b;}</style></defs><g id="Слой_2" data-name="Слой 2"><g id="Слой_5" data-name="Слой 5"><path class="cls-1" d="M0,77.59V945.47a77.58,77.58,0,0,0,38.15,66.81l543.44,320.84c51.73,30.53,117-6.75,117-66.82V897.47a77.59,77.59,0,0,1,77.59-77.59H933.64a77.59,77.59,0,0,0,77.6-77.59V77.59A77.59,77.59,0,0,0,933.64,0h-856A77.59,77.59,0,0,0,0,77.59ZM446.9,1102.83,169.82,940.71a77.61,77.61,0,0,1-38.15-66.82v-663c0-59.91,65-97.22,116.73-67L525.48,304.27a77.6,77.6,0,0,1,38.45,67V1036C563.93,1096.08,498.62,1133.36,446.9,1102.83Z"/><path class="cls-1" d="M1224.58,919.89v364.2a59.5,59.5,0,0,1-59.5,59.5H801.54a59.5,59.5,0,0,1-59.5-59.5h0a59.5,59.5,0,0,1,59.5-59.5h219.89L798.32,1001.48a59.5,59.5,0,0,1,0-84.15h0a59.5,59.5,0,0,1,84.14,0l223.12,223.11V919.89a59.5,59.5,0,0,1,59.5-59.5h0A59.5,59.5,0,0,1,1224.58,919.89Z"/><line class="cls-1" x1="453.67" y1="823.53" x2="453.67" y2="556.56"/><path class="cls-1" d="M445.67,823.53h0c-32.86,0-59.5-22.81-59.5-50.94V607.5c0-28.13,26.64-50.94,59.5-50.94h0c32.86,0,59.5,22.81,59.5,50.94V772.59C505.17,800.72,478.53,823.53,445.67,823.53Z"/></g></g></svg>