<svg xmlns="http://www.w3.org/2000/svg" viewBox="0 0 87.32 87.5"><defs><style>.cls-1{fill:#fff;fill-rule:evenodd;}</style></defs><g id="Слой_2" data-name="Слой 2"><g id="Слой_1-2" data-name="Слой 1"><path class="cls-1" d="M0,64.52v-.28A26.58,26.58,0,0,1,23.32,38.06a20.23,20.23,0,1,1,19.09,0,26.53,26.53,0,0,1,13.8,6,22.57,22.57,0,1,1-10.8,32.53H12.12A12.14,12.14,0,0,1,0,64.52Zm6.25,0a5.87,5.87,0,0,0,5.88,5.81H42.84a22.2,22.2,0,0,1-.65-5.38,22.51,22.51,0,0,1,8.23-17.43,20.23,20.23,0,0,0-11.24-3.39H26.57A20.32,20.32,0,0,0,6.25,64.43h0v.07Zm43.83,7.56A16.32,16.32,0,1,0,64.76,48.62a16.13,16.13,0,0,0-7.64,1.9,16.33,16.33,0,0,0-7,21.56Zm11.55-4.82H56.08a3.13,3.13,0,1,1,0-6.25h5.55V55.45a3.13,3.13,0,1,1,6.25,0V61h5.56a3.13,3.13,0,1,1,0,6.25H67.88v5.56a3.13,3.13,0,0,1-6.25,0Zm-28.75-61a14,14,0,1,0,14,14A14,14,0,0,0,32.88,6.25Z"/></g></g></svg>