<?xml version="1.0" encoding="UTF-8"?>
<svg id="Layer_2" data-name="Layer 2" xmlns="http://www.w3.org/2000/svg" viewBox="0 0 95.08 54">
  <defs>
    <style>
      .cls-1 {
        fill: #fff;
        fill-rule: evenodd;
      }
    </style>
  </defs>
  <g id="Layer_1-2" data-name="Layer 1">
    <path class="cls-1" d="M94.17,24.4c-.9-1-21-24.4-46.6-24.4S1.88,23.4.97,24.4c-1.3,1.5-1.3,3.7,0,5.2.9,1,21,24.4,46.6,24.4s45.7-23.5,46.6-24.5c1.2-1.4,1.2-3.6,0-5.1ZM47.57,9.7c1.3,0,2.3,1,2.3,2.3s-1,2.3-2.3,2.3c-3.8,0-7,3.1-7,7,0,1.3-1,2.3-2.3,2.3s-2.3-1-2.3-2.3c.1-6.4,5.2-11.6,11.6-11.6ZM47.57,46c-17.2,0-32.3-13.3-38-19,3.8-3.8,11.6-10.9,21.5-15.3-1.6,2.8-2.6,6.1-2.6,9.5,0,10.5,8.5,19,19,19s19-8.5,19-19c0-3.5-.9-6.7-2.6-9.5,10,4.4,17.9,11.5,21.7,15.3-5.7,5.7-20.8,19-38,19Z"/>
  </g>
</svg>