<svg width="48" height="48" viewBox="0 0 48 48" fill="none" xmlns="http://www.w3.org/2000/svg">
<rect width="48" height="48" fill="#00005B"/>
<path d="M19.3478 29.5371H11.9045L10.3838 34.2475C10.3438 34.4271 10.1838 34.5469 10.0037 34.5269H6.24202C6.02192 34.5269 5.96189 34.4072 6.02192 34.1677L12.4648 15.745C12.5248 15.5454 12.5848 15.3658 12.6649 15.1263C12.7449 14.7071 12.7849 14.268 12.7849 13.8289C12.7649 13.7291 12.8449 13.6293 12.945 13.6094H13.005H18.1273C18.2673 13.6094 18.3674 13.6693 18.3874 13.7691L25.6906 34.1277C25.7506 34.3473 25.6906 34.4471 25.4905 34.4471H21.3087C21.1686 34.4671 21.0286 34.3673 20.9885 34.2275L19.3478 29.4373V29.5371ZM13.065 25.5651H18.1473C18.0272 25.146 17.8672 24.647 17.6871 24.128C17.507 23.5891 17.3269 23.0103 17.1468 22.4115C16.9467 21.7928 16.7667 21.194 16.5666 20.5752C16.3665 19.9565 16.1864 19.3777 16.0263 18.7988C15.8663 18.24 15.7262 17.721 15.5861 17.242H15.5461C15.366 18.1003 15.146 18.9585 14.8658 19.8168C14.5657 20.7748 14.2656 21.7728 13.9454 22.7708C13.6853 23.7887 13.3652 24.7268 13.065 25.5651Z" fill="#9999FF"/>
<path d="M37.3349 27.7282H31.0198C31.0995 28.3448 31.2987 28.9615 31.6374 29.4985C31.996 30.0356 32.494 30.4533 33.0917 30.692C33.8885 31.0302 34.7651 31.2092 35.6416 31.1893C36.3388 31.1694 37.0361 31.1097 37.7134 30.9705C38.331 30.8909 38.9286 30.7318 39.4864 30.513C39.586 30.4334 39.6458 30.4732 39.6458 30.6721V33.7155C39.6458 33.7951 39.6259 33.8747 39.606 33.9542C39.5661 34.0139 39.5263 34.0537 39.4665 34.0935C38.829 34.372 38.1716 34.5709 37.4744 34.6902C36.5381 34.8692 35.6018 34.9488 34.6455 34.9289C33.1315 34.9289 31.8565 34.6902 30.8206 34.2327C29.8445 33.815 28.9878 33.1586 28.3105 32.343C27.673 31.5672 27.2148 30.692 26.9359 29.7372C26.657 28.8023 26.5176 27.8276 26.5176 26.8331C26.5176 25.7589 26.6769 24.7047 27.0156 23.6703C27.3344 22.6757 27.8324 21.7607 28.5097 20.9452C29.1671 20.1495 29.9839 19.513 30.9202 19.0555C31.8565 18.598 32.9721 18.4389 34.2471 18.4389C35.3029 18.419 36.3588 18.6179 37.3349 19.0555C38.1517 19.4135 38.8689 19.9506 39.4267 20.6468C39.9446 21.3231 40.363 22.079 40.622 22.9144C40.8809 23.7101 41.0005 24.5257 41.0005 25.3412C41.0005 25.8186 40.9805 26.2363 40.9606 26.6143C40.9208 26.9922 40.9009 27.2707 40.8809 27.4497C40.861 27.5889 40.7415 27.7083 40.602 27.7083C40.4825 27.7083 40.2634 27.7282 39.9446 27.7481C39.6259 27.7879 39.2474 27.8078 38.7892 27.8078C38.331 27.8078 37.8529 27.7282 37.3349 27.7282ZM31.0198 24.824H35.2232C35.7412 24.824 36.1197 24.824 36.3588 24.8041C36.5181 24.7842 36.6775 24.7445 36.817 24.645V24.4461C36.817 24.1875 36.7771 23.9488 36.6974 23.7101C36.3389 22.5962 35.283 21.8403 34.1076 21.8801C33.012 21.8204 31.9761 22.3973 31.4581 23.3918C31.219 23.8493 31.0796 24.3267 31.0198 24.824Z" fill="#9999FF"/>
</svg>
