<svg width="48" height="48" viewBox="0 0 48 48" fill="none" xmlns="http://www.w3.org/2000/svg">
<rect width="48" height="48" fill="black"/>
<path d="M18.5 40.4402C21.536 40.4402 24 37.9804 24 34.9496V29.459H18.5C15.464 29.459 13 31.9188 13 34.9496C13 37.9804 15.464 40.4402 18.5 40.4402Z" fill="#0ACF83"/>
<path d="M13 23.9711C13 20.9403 15.464 18.4805 18.5 18.4805H24V29.4617H18.5C15.464 29.4617 13 27.0019 13 23.9711Z" fill="#A259FF"/>
<path d="M13 12.9887C13 9.95785 15.464 7.49805 18.5 7.49805H24V18.4793H18.5C15.464 18.4793 13 16.0195 13 12.9887Z" fill="#F24E1E"/>
<path d="M24 7.49805H29.5C32.536 7.49805 35 9.95785 35 12.9887C35 16.0195 32.536 18.4793 29.5 18.4793H24V7.49805Z" fill="#FF7262"/>
<path d="M35 23.9711C35 27.0019 32.536 29.4617 29.5 29.4617C26.464 29.4617 24 27.0019 24 23.9711C24 20.9403 26.464 18.4805 29.5 18.4805C32.536 18.4805 35 20.9403 35 23.9711Z" fill="#1ABCFE"/>
</svg>
