<svg width="48" height="48" viewBox="0 0 48 48" fill="none" xmlns="http://www.w3.org/2000/svg">
<rect width="48" height="48" fill="#FF2D20"/>
<path fill-rule="evenodd" clip-rule="evenodd" d="M39.982 15.4655C39.9938 15.5095 39.9999 15.5548 40 15.6004V22.6838C40 22.7747 39.976 22.864 39.9306 22.9426C39.8851 23.0213 39.8197 23.0866 39.7409 23.1318L33.8061 26.5547V33.3391C33.8061 33.5238 33.7081 33.6942 33.5483 33.7872L21.1599 40.9312C21.1315 40.9474 21.1006 40.9577 21.0696 40.9687C21.058 40.9725 21.0471 40.9796 21.0348 40.9829C20.9482 41.0057 20.8572 41.0057 20.7706 40.9829C20.7564 40.979 20.7435 40.9712 20.73 40.9661C20.7017 40.9557 20.672 40.9467 20.6449 40.9312L8.25907 33.7872C8.18039 33.7419 8.11501 33.6766 8.06953 33.598C8.02404 33.5193 8.00006 33.43 8 33.3391V12.0891C8 12.0426 8.00644 11.9974 8.01804 11.9535C8.02191 11.9386 8.03093 11.9251 8.03609 11.9102C8.04576 11.8831 8.05478 11.8554 8.06896 11.8302C8.07862 11.8134 8.0928 11.7998 8.1044 11.7843C8.11923 11.7637 8.13276 11.7424 8.15016 11.7243C8.16498 11.7094 8.18432 11.6985 8.20107 11.6856C8.21976 11.6701 8.23652 11.6533 8.25778 11.641L14.4517 8.06899C14.5301 8.02379 14.619 8 14.7095 8C14.7999 8 14.8888 8.02379 14.9673 8.06899L21.1605 11.641H21.1618C21.1824 11.6539 21.1998 11.6701 21.2185 11.6849C21.2353 11.6978 21.254 11.7094 21.2688 11.7237C21.2868 11.7424 21.2997 11.7637 21.3152 11.7843C21.3261 11.7998 21.341 11.8134 21.35 11.8302C21.3648 11.856 21.3732 11.8831 21.3835 11.9102C21.3886 11.9251 21.3977 11.9386 21.4015 11.9541C21.4134 11.9981 21.4195 12.0435 21.4196 12.0891V25.3616L26.5804 22.3848V15.5997C26.5804 15.5546 26.5869 15.5087 26.5985 15.4655C26.603 15.45 26.6114 15.4364 26.6165 15.4216C26.6268 15.3944 26.6358 15.3667 26.65 15.3415C26.6597 15.3247 26.6739 15.3112 26.6848 15.2957C26.7003 15.275 26.7132 15.2537 26.7312 15.2356C26.746 15.2208 26.7647 15.2098 26.7815 15.1969C26.8008 15.1814 26.8176 15.1646 26.8382 15.1524L33.0327 11.5803C33.1111 11.5351 33.2 11.5112 33.2905 11.5112C33.381 11.5112 33.4699 11.5351 33.5483 11.5803L39.7416 15.1524C39.7635 15.1653 39.7802 15.1814 39.7996 15.1963C39.8157 15.2092 39.8344 15.2208 39.8492 15.235C39.8672 15.2537 39.8801 15.275 39.8956 15.2957C39.9072 15.3112 39.9214 15.3247 39.9304 15.3415C39.9452 15.3667 39.9536 15.3944 39.9639 15.4216C39.9697 15.4364 39.9781 15.45 39.982 15.4655ZM38.9676 22.3848V16.4945L36.8003 17.7444L33.8061 19.4713V25.3616L38.9682 22.3848H38.9676ZM32.7743 33.0402V27.146L29.8291 28.831L21.4189 33.6393V39.589L32.7743 33.0402ZM9.03242 12.9832V33.0402L20.3865 39.5884V33.64L14.4549 30.2771L14.453 30.2758L14.4504 30.2745C14.4304 30.2629 14.4137 30.2461 14.395 30.2319C14.3789 30.219 14.3602 30.2087 14.346 30.1945L14.3447 30.1926C14.3279 30.1764 14.3163 30.1564 14.3022 30.1383C14.2893 30.1209 14.2738 30.106 14.2635 30.088L14.2629 30.086C14.2513 30.0667 14.2442 30.0434 14.2358 30.0215C14.2274 30.0021 14.2165 29.984 14.2113 29.9634C14.2049 29.9388 14.2036 29.9124 14.201 29.8872C14.1984 29.8678 14.1933 29.8485 14.1933 29.8291V29.8278V15.96L11.1997 14.2324L9.03242 12.9832ZM14.7101 9.11355L9.54993 12.0891L14.7088 15.0646L19.8684 12.0884L14.7088 9.11355H14.7101ZM17.3936 27.6832L20.3872 25.9569V12.9832L18.2198 14.233L15.2257 15.96V28.9337L17.3936 27.6832ZM33.2905 12.6249L28.131 15.6004L33.2905 18.5759L38.4494 15.5997L33.2905 12.6249ZM32.7743 19.4713L29.7802 17.7444L27.6128 16.4945V22.3848L30.6064 24.1111L32.7743 25.3616V19.4713ZM20.9021 32.7452L28.47 28.4172L32.253 26.2545L27.0973 23.2809L21.1612 26.7045L15.7509 29.8246L20.9021 32.7452Z" fill="#0D0D0D"/>
<path fill-rule="evenodd" clip-rule="evenodd" d="M39.982 15.4655C39.9938 15.5095 39.9999 15.5548 40 15.6004V22.6838C40 22.7747 39.976 22.864 39.9306 22.9426C39.8851 23.0213 39.8197 23.0866 39.7409 23.1318L33.8061 26.5547V33.3391C33.8061 33.5238 33.7081 33.6942 33.5483 33.7872L21.1599 40.9312C21.1315 40.9474 21.1006 40.9577 21.0696 40.9687C21.058 40.9725 21.0471 40.9796 21.0348 40.9829C20.9482 41.0057 20.8572 41.0057 20.7706 40.9829C20.7564 40.979 20.7435 40.9712 20.73 40.9661C20.7017 40.9557 20.672 40.9467 20.6449 40.9312L8.25907 33.7872C8.18039 33.7419 8.11501 33.6766 8.06953 33.598C8.02404 33.5193 8.00006 33.43 8 33.3391V12.0891C8 12.0426 8.00644 11.9974 8.01804 11.9535C8.02191 11.9386 8.03093 11.9251 8.03609 11.9102C8.04576 11.8831 8.05478 11.8554 8.06896 11.8302C8.07862 11.8134 8.0928 11.7998 8.1044 11.7843C8.11923 11.7637 8.13276 11.7424 8.15016 11.7243C8.16498 11.7094 8.18432 11.6985 8.20107 11.6856C8.21976 11.6701 8.23652 11.6533 8.25778 11.641L14.4517 8.06899C14.5301 8.02379 14.619 8 14.7095 8C14.7999 8 14.8888 8.02379 14.9673 8.06899L21.1605 11.641H21.1618C21.1824 11.6539 21.1998 11.6701 21.2185 11.6849C21.2353 11.6978 21.254 11.7094 21.2688 11.7237C21.2868 11.7424 21.2997 11.7637 21.3152 11.7843C21.3261 11.7998 21.341 11.8134 21.35 11.8302C21.3648 11.856 21.3732 11.8831 21.3835 11.9102C21.3886 11.9251 21.3977 11.9386 21.4015 11.9541C21.4134 11.9981 21.4195 12.0435 21.4196 12.0891V25.3616L26.5804 22.3848V15.5997C26.5804 15.5546 26.5869 15.5087 26.5985 15.4655C26.603 15.45 26.6114 15.4364 26.6165 15.4216C26.6268 15.3944 26.6358 15.3667 26.65 15.3415C26.6597 15.3247 26.6739 15.3112 26.6848 15.2957C26.7003 15.275 26.7132 15.2537 26.7312 15.2356C26.746 15.2208 26.7647 15.2098 26.7815 15.1969C26.8008 15.1814 26.8176 15.1646 26.8382 15.1524L33.0327 11.5803C33.1111 11.5351 33.2 11.5112 33.2905 11.5112C33.381 11.5112 33.4699 11.5351 33.5483 11.5803L39.7416 15.1524C39.7635 15.1653 39.7802 15.1814 39.7996 15.1963C39.8157 15.2092 39.8344 15.2208 39.8492 15.235C39.8672 15.2537 39.8801 15.275 39.8956 15.2957C39.9072 15.3112 39.9214 15.3247 39.9304 15.3415C39.9452 15.3667 39.9536 15.3944 39.9639 15.4216C39.9697 15.4364 39.9781 15.45 39.982 15.4655ZM38.9676 22.3848V16.4945L36.8003 17.7444L33.8061 19.4713V25.3616L38.9682 22.3848H38.9676ZM32.7743 33.0402V27.146L29.8291 28.831L21.4189 33.6393V39.589L32.7743 33.0402ZM9.03242 12.9832V33.0402L20.3865 39.5884V33.64L14.4549 30.2771L14.453 30.2758L14.4504 30.2745C14.4304 30.2629 14.4137 30.2461 14.395 30.2319C14.3789 30.219 14.3602 30.2087 14.346 30.1945L14.3447 30.1926C14.3279 30.1764 14.3163 30.1564 14.3022 30.1383C14.2893 30.1209 14.2738 30.106 14.2635 30.088L14.2629 30.086C14.2513 30.0667 14.2442 30.0434 14.2358 30.0215C14.2274 30.0021 14.2165 29.984 14.2113 29.9634C14.2049 29.9388 14.2036 29.9124 14.201 29.8872C14.1984 29.8678 14.1933 29.8485 14.1933 29.8291V29.8278V15.96L11.1997 14.2324L9.03242 12.9832ZM14.7101 9.11355L9.54993 12.0891L14.7088 15.0646L19.8684 12.0884L14.7088 9.11355H14.7101ZM17.3936 27.6832L20.3872 25.9569V12.9832L18.2198 14.233L15.2257 15.96V28.9337L17.3936 27.6832ZM33.2905 12.6249L28.131 15.6004L33.2905 18.5759L38.4494 15.5997L33.2905 12.6249ZM32.7743 19.4713L29.7802 17.7444L27.6128 16.4945V22.3848L30.6064 24.1111L32.7743 25.3616V19.4713ZM20.9021 32.7452L28.47 28.4172L32.253 26.2545L27.0973 23.2809L21.1612 26.7045L15.7509 29.8246L20.9021 32.7452Z" fill="white"/>
</svg>
