<svg width="48" height="48" viewBox="0 0 48 48" fill="none" xmlns="http://www.w3.org/2000/svg">
<rect width="48" height="48" fill="#00758F"/>
<path d="M8.31963 5.98461C7.46286 5.97164 6.71582 6.30043 6.33028 7.2641C5.66905 8.88617 7.30973 10.4812 7.87366 11.3052C8.28954 11.8781 8.82858 12.5277 9.12094 13.1753C9.29256 13.5995 9.34211 14.0493 9.51421 14.4977C9.90556 15.595 10.272 16.8172 10.7869 17.8413C11.0553 18.3652 11.3488 18.9143 11.6915 19.386C11.8892 19.6621 12.2308 19.7851 12.3046 20.2354C11.963 20.7337 11.9363 21.4817 11.7407 22.1067C10.8598 24.9248 11.2018 28.417 12.4511 30.4872C12.8419 31.1106 13.7733 32.4826 15.023 31.9583C16.1248 31.5101 15.8798 30.0881 16.1979 28.8418C16.2711 28.5404 16.2222 28.3427 16.3687 28.1434V28.1937C16.7113 28.891 17.0552 29.5628 17.3733 30.264C18.1334 31.4849 19.4545 32.7566 20.5567 33.6039C21.1427 34.0545 21.6084 34.8265 22.343 35.1019V35.0264H22.2948C22.1472 34.8026 21.9274 34.7023 21.7312 34.5285C21.2907 34.0792 20.8024 33.5301 20.4586 33.0317C19.4307 31.6356 18.5236 30.0884 17.7175 28.4921C17.3246 27.717 16.9824 26.87 16.6638 26.0977C16.5173 25.7998 16.5172 25.3495 16.2719 25.2002C15.9036 25.7483 15.3664 26.2227 15.0975 26.8935C14.6319 27.9673 14.5832 29.2891 14.4105 30.6607C14.3132 30.6868 14.3624 30.6609 14.3132 30.7106C13.5306 30.5112 13.2612 29.6881 12.9668 28.9915C12.2323 27.2184 12.1088 24.3746 12.7465 22.3301C12.917 21.8073 13.6538 20.1616 13.3586 19.6619C13.2106 19.1859 12.7212 18.9141 12.4523 18.5383C12.1348 18.0646 11.7902 17.467 11.5721 16.942C10.9841 15.5459 10.6886 13.9987 10.0541 12.6026C9.76002 11.953 9.24455 11.2801 8.82976 10.6821C8.3636 10.0085 7.85019 9.53478 7.48217 8.73712C7.36082 8.4622 7.18933 8.01266 7.38441 7.71427C7.43253 7.51437 7.53197 7.43947 7.72813 7.38937C8.04466 7.11493 8.95124 7.46342 9.2691 7.61322C10.1757 7.98626 10.9346 8.33707 11.6923 8.85955C12.0355 9.10943 12.4029 9.58365 12.8429 9.70938H13.3583C14.1415 9.88264 15.0237 9.75765 15.7586 9.98309C17.0554 10.4067 18.2302 11.0302 19.2841 11.7034C22.4905 13.7736 25.1349 16.7182 26.9212 20.2337C27.2157 20.8066 27.3393 21.3306 27.6082 21.9282C28.1224 23.1528 28.76 24.4 29.2736 25.596C29.7874 26.7684 30.2779 27.9646 31.0128 28.9384C31.379 29.4612 32.8487 29.7356 33.5098 30.0102C33.9984 30.2339 34.7583 30.4337 35.1994 30.7076C36.0318 31.2305 36.8624 31.8301 37.6468 32.4046C38.0376 32.704 39.2615 33.3269 39.3352 33.8265C37.3761 33.7766 35.8585 33.9762 34.5859 34.5254C34.2186 34.6749 33.6316 34.6748 33.5813 35.1487C33.7785 35.3479 33.8023 35.6722 33.9749 35.9477C34.2679 36.4465 34.7809 37.1189 35.2476 37.4691C35.7619 37.8684 36.2759 38.266 36.8151 38.6151C37.7693 39.2163 38.8468 39.5641 39.7762 40.1623C40.3166 40.511 40.8535 40.9597 41.3933 41.3348C41.6618 41.5342 41.8316 41.859 42.1758 41.9824V41.9065C42.0032 41.6826 41.9553 41.3587 41.7848 41.1078C41.5405 40.8603 41.295 40.6345 41.0496 40.3861C40.3392 39.4134 39.4567 38.5663 38.5043 37.8676C37.7202 37.3174 36.0049 36.5685 35.6882 35.6488C35.6882 35.6488 35.6623 35.6226 35.6383 35.598C36.1771 35.5474 36.8152 35.3475 37.3291 35.1962C38.1604 34.9724 38.9196 35.0227 39.7765 34.799C40.1688 34.6985 40.5607 34.5733 40.9541 34.4508V34.2247C40.511 33.7768 40.1943 33.1769 39.7297 32.7537C38.4825 31.6567 37.1095 30.5852 35.6894 29.6851C34.9293 29.1861 33.9502 28.8635 33.1417 28.4388C32.8492 28.2889 32.3601 28.2151 32.188 27.9642C31.7469 27.4157 31.501 26.6933 31.1834 26.0438C30.474 24.6734 29.7874 23.152 29.1759 21.7031C28.7353 20.7311 28.466 19.7593 27.9274 18.8605C25.4038 14.6193 22.6627 12.0517 18.452 9.53204C17.5459 9.0076 16.4686 8.78363 15.3193 8.50919C14.7061 8.48308 14.095 8.43439 13.4822 8.40988C13.0899 8.23453 12.6972 7.76007 12.355 7.53573C11.4824 6.97482 9.74931 6.00452 8.32195 5.98242L8.31963 5.98461ZM14.3602 12.15C13.9448 12.15 13.6517 12.2013 13.3561 12.2753V12.3252H13.4039C13.6016 12.7233 13.945 13 14.1877 13.3486C14.3849 13.7478 14.5564 14.1452 14.7521 14.5449C14.7761 14.5204 14.7994 14.4946 14.7994 14.4946C15.1447 14.2463 15.3161 13.8475 15.3161 13.2482C15.1681 13.0724 15.145 12.8992 15.0215 12.7238C14.875 12.4749 14.5565 12.3497 14.3602 12.15Z" fill="white"/>
</svg>
