<svg width="48" height="48" viewBox="0 0 48 48" fill="none" xmlns="http://www.w3.org/2000/svg">
<rect width="48" height="48" fill="#4F5B93"/>
<path d="M7.15412 18.2129H13.0653C14.8003 18.2275 16.0576 18.7277 16.8371 19.7128C17.6165 20.6978 17.8737 22.0433 17.609 23.7491C17.5062 24.5286 17.2782 25.2931 16.9253 26.0431C16.5869 26.793 16.1167 27.4693 15.5136 28.0723C14.7783 28.8368 13.9917 29.322 13.1536 29.528C12.3154 29.734 11.4477 29.8368 10.5509 29.8368H7.90405L7.06589 34.0276H4L7.15412 18.2129ZM9.73477 20.7274L8.41136 27.3444C8.49959 27.359 8.58781 27.3665 8.67604 27.3665C8.77883 27.3665 8.88204 27.3665 8.98483 27.3665C10.3965 27.381 11.573 27.2416 12.5139 26.9474C13.4549 26.6386 14.0874 25.5653 14.4108 23.7271C14.6755 22.1831 14.4108 21.2933 13.6168 21.0582C12.8373 20.8231 11.8597 20.7128 10.6832 20.7274C10.5068 20.7419 10.3378 20.7494 10.1759 20.7494C10.029 20.7494 9.8746 20.7494 9.71271 20.7494L9.73477 20.7274Z" fill="white"/>
<path d="M21.102 14H24.1458L23.2856 18.2128H26.0206C27.5205 18.2424 28.6379 18.5512 29.3733 19.1392C30.1232 19.7273 30.3438 20.8451 30.035 22.4919L28.5572 29.8368H25.4692L26.8808 22.8227C27.0277 22.0874 26.9836 21.5655 26.7485 21.2567C26.5134 20.9479 26.0061 20.7935 25.2266 20.7935L22.7783 20.7714L20.9696 29.8368H17.9258L21.102 14Z" fill="white"/>
<path d="M33.3045 18.2129H39.2157C40.9507 18.2275 42.208 18.7277 42.9874 19.7128C43.7669 20.6978 44.0241 22.0433 43.7594 23.7491C43.6566 24.5286 43.4286 25.2931 43.0757 26.0431C42.7373 26.793 42.2671 27.4693 41.664 28.0723C40.9287 28.8368 40.1421 29.322 39.304 29.528C38.4658 29.734 37.5981 29.8368 36.7013 29.8368H34.0544L33.2163 34.0276H30.1504L33.3045 18.2129ZM35.8852 20.7274L34.5617 27.3444C34.65 27.359 34.7382 27.3665 34.8264 27.3665C34.9292 27.3665 35.0324 27.3665 35.1352 27.3665C36.5469 27.381 37.7234 27.2416 38.6643 26.9474C39.6053 26.6386 40.2378 25.5653 40.5612 23.7271C40.8259 22.1831 40.5612 21.2933 39.7672 21.0582C38.9877 20.8231 38.0101 20.7128 36.8336 20.7274C36.6571 20.7419 36.4882 20.7494 36.3263 20.7494C36.1794 20.7494 36.025 20.7494 35.8631 20.7494L35.8852 20.7274Z" fill="white"/>
</svg>
