<svg width="48" height="48" viewBox="0 0 48 48" fill="none" xmlns="http://www.w3.org/2000/svg">
<rect width="48" height="48" fill="#00005B"/>
<path d="M10 34.3624V13.3469C10 13.204 10.0612 13.1224 10.204 13.1224C10.5509 13.1224 10.8773 13.1224 11.3466 13.102C11.8363 13.0816 12.3464 13.0816 12.8973 13.0612C13.4482 13.0408 14.0399 13.0408 14.6724 13.0204C15.3049 13 15.917 13 16.5291 13C18.2022 13 19.5896 13.204 20.7322 13.6325C21.7524 13.9794 22.691 14.5507 23.4663 15.3056C24.1192 15.9585 24.6293 16.7542 24.9557 17.6316C25.2618 18.4885 25.425 19.3659 25.425 20.284C25.425 22.0387 25.017 23.4874 24.2008 24.63C23.3847 25.7726 22.2421 26.6295 20.9159 27.1192C19.5284 27.6293 17.9982 27.8129 16.3251 27.8129C15.8354 27.8129 15.5089 27.8129 15.3049 27.7925C15.1009 27.7721 14.8152 27.7721 14.4276 27.7721V34.3216C14.448 34.4645 14.3459 34.5869 14.2031 34.6073H14.1215H10.2448C10.0816 34.6073 10 34.5257 10 34.342V34.3624ZM14.448 17.0807V23.9363C14.7336 23.9567 14.9989 23.9771 15.2437 23.9771H16.3251C17.1208 23.9771 17.9165 23.8546 18.6715 23.6098C19.3244 23.4262 19.8957 23.0385 20.3446 22.5284C20.773 22.0183 20.9771 21.3246 20.9771 20.4269C20.9975 19.7944 20.8342 19.1618 20.5078 18.611C20.1609 18.0805 19.6712 17.6724 19.0795 17.448C18.3246 17.1419 17.5085 17.0195 16.6719 17.0399C16.1414 17.0399 15.6722 17.0399 15.2845 17.0603C14.8764 17.0399 14.5908 17.0603 14.448 17.0807Z" fill="#9999FF"/>
<path d="M28.3642 18.285H31.9348C32.1388 18.285 32.3021 18.4278 32.3633 18.6115C32.4245 18.7747 32.4653 18.9379 32.4857 19.1215C32.5265 19.3256 32.5673 19.55 32.5877 19.7541C32.6081 19.9785 32.6285 20.2233 32.6285 20.4886C33.2406 19.7745 33.9752 19.1828 34.8117 18.7339C35.7503 18.2034 36.8316 17.9381 37.913 17.9381C38.0558 17.9177 38.1783 18.0198 38.1987 18.1626V18.2442V22.2229C38.1987 22.3861 38.0967 22.4473 37.8722 22.4473C37.1377 22.4269 36.3828 22.4881 35.6686 22.6513C35.0769 22.7738 34.5056 22.9574 33.9547 23.2022C33.5671 23.3859 33.1998 23.6307 32.9142 23.9572V34.3629C32.9142 34.567 32.8326 34.6486 32.6489 34.6486H28.6294C28.4662 34.669 28.3234 34.567 28.303 34.4037V34.3221V23.0186C28.303 22.5289 28.303 22.0188 28.2826 21.4884C28.2622 20.9579 28.2622 20.4274 28.2418 19.8969C28.2418 19.4276 28.201 18.9787 28.1602 18.5094C28.1398 18.4074 28.201 18.3054 28.303 18.285C28.303 18.2646 28.3438 18.2646 28.3642 18.285Z" fill="#9999FF"/>
</svg>
