<svg width="48" height="48" viewBox="0 0 48 48" fill="none" xmlns="http://www.w3.org/2000/svg">
<rect width="48" height="48" fill="#CF649A"/>
<path d="M38.4431 26.2458C37.0477 26.2531 35.8348 26.5892 34.8193 27.0861C34.4467 26.3481 34.074 25.6905 34.0083 25.2083C33.9352 24.6457 33.8476 24.3022 33.9352 23.63C34.0229 22.9578 34.4174 22.0006 34.4101 21.9275C34.4028 21.8545 34.3225 21.5111 33.5188 21.5038C32.7151 21.4964 32.021 21.6572 31.9407 21.8691C31.8603 22.081 31.7069 22.5632 31.6046 23.0601C31.4657 23.7908 29.9972 26.3993 29.157 27.7656C28.8867 27.2322 28.6529 26.7646 28.6017 26.392C28.5287 25.8293 28.441 25.4859 28.5287 24.8137C28.6164 24.1415 29.0109 23.1843 29.0036 23.1112C28.9963 23.0382 28.9159 22.6948 28.1122 22.6874C27.3085 22.6801 26.6145 22.8409 26.5341 23.0528C26.4537 23.2647 26.3661 23.7615 26.198 24.2438C26.03 24.726 24.0792 29.0808 23.5678 30.2061C23.3048 30.7833 23.0783 31.2436 22.9175 31.5578C22.9175 31.5578 22.9102 31.5797 22.8883 31.6163C22.7495 31.8866 22.6691 32.0328 22.6691 32.0328C22.6691 32.0328 22.6691 32.0328 22.6691 32.0401C22.5595 32.2374 22.4426 32.42 22.3842 32.42C22.3404 32.42 22.26 31.8939 22.3988 31.1779C22.6911 29.6654 23.3851 27.3126 23.3778 27.2322C23.3778 27.1884 23.5093 26.7792 22.9249 26.5673C22.355 26.3554 22.1504 26.7062 22.0993 26.7062C22.0481 26.7062 22.0116 26.8304 22.0116 26.8304C22.0116 26.8304 22.6472 24.1853 20.7988 24.1853C19.6444 24.1853 18.0517 25.4494 17.2626 26.5892C16.7658 26.8596 15.7064 27.4368 14.5739 28.0579C14.1429 28.299 13.6972 28.5401 13.2807 28.7667C13.2515 28.7374 13.2223 28.7009 13.1931 28.6717C10.9574 26.2824 6.82209 24.5945 6.99744 21.3868C7.06319 20.2178 7.46503 17.1489 14.9392 13.4225C21.091 10.3902 25.9861 11.2305 26.8336 13.0937C28.0465 15.7534 24.2107 20.6927 17.8544 21.4088C15.4287 21.6791 14.1575 20.7439 13.836 20.3931C13.4999 20.0278 13.4488 20.0059 13.3246 20.0789C13.12 20.1885 13.2515 20.5173 13.3246 20.7073C13.5145 21.2042 14.2963 22.081 15.6187 22.5121C16.7877 22.892 19.6298 23.1039 23.071 21.7741C26.9213 20.2835 29.9315 16.1406 29.0474 12.6699C28.1634 9.14806 22.3184 7.98629 16.7877 9.9518C13.4999 11.1209 9.93451 12.9622 7.37005 15.3588C4.32339 18.2084 3.84118 20.6854 4.03845 21.723C4.74714 25.4056 9.82492 27.8022 11.856 29.5777C11.7537 29.6362 11.6588 29.6873 11.5784 29.7311C10.5628 30.2353 6.69058 32.2593 5.72617 34.4001C4.63025 36.826 5.90152 38.565 6.74172 38.7988C9.35002 39.5222 12.0314 38.2216 13.4707 36.0734C14.91 33.9252 14.7347 31.134 14.0698 29.8554C14.0625 29.8407 14.0552 29.8261 14.0406 29.8115C14.3036 29.6581 14.5739 29.4973 14.8369 29.3439C15.3557 29.037 15.8671 28.752 16.3055 28.5182C16.0571 29.1978 15.8744 30.0088 15.7867 31.1779C15.6772 32.5515 16.2397 34.3344 16.9776 35.0358C17.3064 35.3427 17.6936 35.35 17.9421 35.35C18.8042 35.35 19.1914 34.634 19.6225 33.7864C20.1485 32.7488 20.6234 31.5432 20.6234 31.5432C20.6234 31.5432 20.0316 34.802 21.639 34.802C22.2235 34.802 22.8153 34.0421 23.0783 33.6549C23.0783 33.6622 23.0783 33.6622 23.0783 33.6622C23.0783 33.6622 23.0929 33.6402 23.1221 33.5891C23.1806 33.4941 23.2171 33.4357 23.2171 33.4357C23.2171 33.4357 23.2171 33.4284 23.2171 33.421C23.4509 33.0119 23.9769 32.0839 24.7587 30.5422C25.767 28.5548 26.7387 26.0705 26.7387 26.0705C26.7387 26.0705 26.8263 26.6769 27.1259 27.6853C27.3012 28.2771 27.6665 28.9274 27.9588 29.5558C27.725 29.8846 27.5789 30.0672 27.5789 30.0672C27.5789 30.0672 27.5789 30.0672 27.5862 30.0746C27.3962 30.323 27.1917 30.5933 26.9652 30.8564C26.1688 31.8063 25.219 32.895 25.0875 33.2091C24.934 33.5818 24.9706 33.8521 25.2628 34.0713C25.4747 34.2321 25.8546 34.254 26.2418 34.2321C26.9579 34.1809 27.462 34.0056 27.7104 33.896C28.0976 33.7572 28.5506 33.5453 28.9744 33.2311C29.7561 32.6538 30.231 31.8282 30.1872 30.7395C30.1653 30.1403 29.968 29.5412 29.7269 28.9785C29.7999 28.8763 29.8657 28.774 29.9388 28.6717C31.1735 26.8669 32.1306 24.8868 32.1306 24.8868C32.1306 24.8868 32.2183 25.4932 32.5178 26.5016C32.664 27.013 32.9635 27.5683 33.2265 28.109C32.0649 29.0516 31.3489 30.1476 31.0931 30.8637C30.6328 32.1935 30.9909 32.7927 31.6703 32.9315C31.9772 32.9973 32.4156 32.8511 32.737 32.7123C33.1462 32.5808 33.6284 32.3543 34.0887 32.0182C34.8704 31.4409 35.623 30.6372 35.5791 29.5485C35.5572 29.0516 35.4257 28.5621 35.243 28.0871C36.2294 27.6779 37.5006 27.4514 39.1226 27.6414C42.6003 28.0506 43.2871 30.2207 43.1556 31.134C43.0241 32.0474 42.2935 32.5442 42.0524 32.6977C41.8113 32.8511 41.7309 32.9023 41.7528 33.0119C41.782 33.1726 41.8989 33.1653 42.1035 33.1361C42.3885 33.0849 43.9301 32.3981 43.9958 30.7176C44.1054 28.5694 42.0597 26.2239 38.4431 26.2458ZM11.6149 35.2916C10.4606 36.5483 8.8532 37.0233 8.15912 36.6214C7.41389 36.1903 7.70614 34.3344 9.12353 33.0046C9.98566 32.1935 11.0962 31.4409 11.8341 30.9806C12.0022 30.8783 12.2506 30.7322 12.5501 30.5495C12.6013 30.5203 12.6305 30.5057 12.6305 30.5057C12.6889 30.4691 12.7474 30.4326 12.8058 30.3961C13.3246 32.2958 12.8278 33.969 11.6149 35.2916ZM20.017 29.5777C19.6152 30.5568 18.775 33.063 18.2635 32.9242C17.8252 32.8073 17.5548 30.9075 18.1759 29.0297C18.49 28.0871 19.1549 26.9619 19.5421 26.5235C20.1704 25.822 20.8645 25.5882 21.0326 25.8732C21.2444 26.2458 20.2654 28.9639 20.017 29.5777ZM26.9505 32.895C26.7825 32.9826 26.6218 33.0411 26.5487 32.9973C26.4976 32.968 26.6218 32.8511 26.6218 32.8511C26.6218 32.8511 27.4912 31.9159 27.8346 31.4921C28.0319 31.2436 28.2657 30.9514 28.5141 30.6226C28.5141 30.6518 28.5141 30.6883 28.5141 30.7176C28.5141 31.8355 27.4328 32.5881 26.9505 32.895ZM32.2987 31.6747C32.1744 31.5871 32.1964 31.2948 32.6128 30.3814C32.7736 30.0234 33.1535 29.4243 33.8037 28.847C33.8768 29.0808 33.9279 29.3073 33.9206 29.5192C33.9133 30.9294 32.9051 31.4555 32.2987 31.6747Z" fill="white"/>
</svg>
