<svg width="48" height="48" viewBox="0 0 48 48" fill="none" xmlns="http://www.w3.org/2000/svg">
<rect width="48" height="48" fill="black"/>
<path d="M34.7785 8.0019L17.819 8.0909C14.3198 7.913 10.8714 8.76463 7.88993 10.481V10.4937C7.35667 10.7844 7 11.3441 7 11.9939C7 12.941 7.75709 13.7102 8.70358 13.7102C9.19762 13.7102 9.64895 13.4974 9.9622 13.1635C13.6903 11.1654 18.2509 10.7868 22.4594 12.5151C29.9345 15.5836 33.5125 24.1614 30.4433 31.6359C29.6202 33.6405 28.3976 35.3669 26.909 36.7594L26.9217 36.7721C26.4123 37.0693 26.0699 37.6267 26.0699 38.2595C26.0699 39.2066 26.839 39.9631 27.7862 39.9631C28.3952 39.9631 28.9312 39.6432 29.2355 39.1622C31.0492 37.4571 32.5395 35.3567 33.5453 32.9072C33.6147 32.74 40.558 15.8149 40.5758 15.7697C41.7619 12.8816 40.3747 9.58159 37.4865 8.396C36.5957 8.0307 35.7791 7.98929 34.7785 8.0019Z" fill="#F79B07"/>
<path d="M12.4409 29.8491C12.4756 32.2882 14.2875 33.2724 16.2382 33.2724C17.666 33.2724 19.4774 32.6427 19.4774 30.6743C19.4774 28.983 17.4221 28.3917 13.8688 27.5266C11.0121 26.8178 8.1563 25.677 8.1563 22.0963C8.1563 16.9026 12.1276 15.5645 15.9941 15.5645C19.9307 15.5645 23.5534 17.0591 23.9367 22.0564H19.2343C19.0949 19.893 17.6314 19.3025 15.8556 19.3025C14.7402 19.3025 13.1028 19.5381 13.1028 21.1911C13.1028 23.198 15.8903 23.4728 18.7112 24.2214C21.6028 24.9684 24.4247 26.1492 24.4247 29.9273C24.4247 35.2785 20.3141 37.0096 16.2035 37.0096C12.0237 37.0096 7.94846 35.2392 7.73828 29.8482H12.4409V29.8491Z" fill="white"/>
</svg>
