<svg width="48" height="48" viewBox="0 0 48 48" fill="none" xmlns="http://www.w3.org/2000/svg">
<rect width="48" height="48" fill="#1E3101"/>
<path d="M35.8467 12.5186C35.909 12.5001 35.9758 12.503 36.0361 12.5273C36.0823 12.5505 36.0889 12.6115 36.0889 12.7295C36.0426 13.2617 36.0091 13.9848 35.9883 14.8984C35.9675 15.8122 35.9444 16.6975 35.9189 17.5527H39.1348C39.2735 17.5527 39.3428 17.6454 39.3428 17.8301V21.3359C39.3509 21.3908 39.3379 21.4471 39.3057 21.4922C39.2734 21.5373 39.2244 21.5683 39.1699 21.5781H35.8809V29.0039C35.8809 29.7911 36.0143 30.3524 36.2822 30.6875C36.5502 31.0226 37.0401 31.191 37.751 31.1924C37.958 31.1924 38.153 31.1869 38.3389 31.1748C38.5248 31.1627 38.7067 31.1453 38.8916 31.1221C38.9224 31.1106 38.9555 31.1065 38.9883 31.1094C39.0211 31.1123 39.0536 31.1228 39.082 31.1396C39.1127 31.1666 39.1362 31.2009 39.1504 31.2393C39.1646 31.2778 39.169 31.3197 39.1631 31.3604V34.2061C39.1631 34.4603 39.0709 34.6108 38.8867 34.6572C38.4332 34.7996 37.9717 34.915 37.5049 35.0039C36.9577 35.1018 36.4025 35.1485 35.8467 35.1426C34.3491 35.1426 33.1739 34.7495 32.3223 33.9629C31.4707 33.1763 31.0446 31.9153 31.0439 30.1807V21.5752H29.0039C28.82 21.5752 28.7275 21.4737 28.7275 21.2627V17.8242C28.7275 17.6395 28.828 17.5459 29.0391 17.5459H31.0771C31.0999 17.153 31.1292 16.6964 31.1641 16.1758C31.1992 15.656 31.2444 15.1351 31.3027 14.6143C31.361 14.0936 31.4108 13.6716 31.457 13.3486C31.4791 13.2796 31.5132 13.2144 31.5576 13.1572C31.6024 13.1009 31.6625 13.0584 31.7305 13.0352L35.8467 12.5186ZM16.9795 12C18.7302 12 20.204 12.2201 21.4014 12.6602C22.4824 13.0266 23.4686 13.6305 24.2871 14.4287C24.9811 15.1205 25.5177 15.9559 25.8594 16.876C26.1828 17.7711 26.3468 18.7167 26.3438 19.6689C26.3437 21.5199 25.9176 23.0466 25.0654 24.249C24.2075 25.4577 23.001 26.3741 21.6094 26.874C20.0587 27.4342 18.4203 27.7104 16.7725 27.6895C16.2654 27.6895 15.9083 27.683 15.7012 27.6709C15.4942 27.6598 15.1825 27.6533 14.7686 27.6533V34.4902C14.7786 34.5625 14.7594 34.6359 14.7158 34.6943C14.6722 34.7527 14.6071 34.7912 14.5352 34.8018H10.2412C10.0805 34.7977 10 34.7061 10 34.5205V12.3467C10 12.1853 10.0685 12.1046 10.207 12.1045C10.5748 12.1045 11.0124 12.0983 11.5195 12.0869C12.0268 12.0755 12.5742 12.0639 13.1611 12.0518L15.0273 12.0176C15.684 12.0055 16.3349 12 16.9795 12ZM17.1123 16.2002C16.5595 16.2002 16.0697 16.2063 15.6436 16.2178C15.223 16.2291 14.9313 16.2461 14.7686 16.2686V23.4521C15.0673 23.4757 15.3438 23.487 15.5977 23.4863H16.7373C17.5736 23.4984 18.4071 23.3809 19.208 23.1387C19.8925 22.9345 20.5044 22.5372 20.9707 21.9941C21.4195 21.4626 21.6436 20.7221 21.6436 19.7734C21.6609 19.1026 21.487 18.4407 21.1416 17.8662C20.777 17.3097 20.2504 16.8794 19.6338 16.6338C18.8308 16.3208 17.9732 16.173 17.1123 16.2002Z" fill="#99E83F"/>
</svg>
