<svg width="48" height="48" viewBox="0 0 48 48" fill="none" xmlns="http://www.w3.org/2000/svg">
<rect width="48" height="48" fill="#3178C6"/>
<path fill-rule="evenodd" clip-rule="evenodd" d="M29.6505 38.0661V42.8132C30.4135 43.2089 31.3158 43.5055 32.3576 43.7033C33.3993 43.9011 34.4972 44 35.6515 44C36.7764 44 37.8449 43.8912 38.8573 43.6736C39.8697 43.4561 40.7575 43.0975 41.5204 42.5981C42.2833 42.0987 42.8874 41.4459 43.3324 40.6399C43.7774 39.8338 44 38.8375 44 37.6507C44 36.7903 43.8729 36.0362 43.6185 35.3884C43.3642 34.7407 42.9974 34.1646 42.5181 33.6602C42.0388 33.1558 41.4642 32.7033 40.7941 32.3027C40.1241 31.9022 39.3685 31.5239 38.5272 31.1679C37.911 30.9108 37.3584 30.6611 36.8693 30.4188C36.3802 30.1764 35.9645 29.9292 35.6221 29.6771C35.2797 29.4248 35.0157 29.1578 34.8298 28.8759C34.644 28.594 34.551 28.2751 34.551 27.919C34.551 27.5927 34.6342 27.2985 34.8005 27.0364C34.9668 26.7743 35.2016 26.5494 35.5047 26.3614C35.808 26.1736 36.1797 26.0276 36.6198 25.9238C37.0601 25.8199 37.5491 25.7681 38.0871 25.7681C38.4783 25.7681 38.8916 25.7978 39.3268 25.857C39.7621 25.9164 40.1998 26.0079 40.6401 26.1314C41.0803 26.2551 41.5081 26.4109 41.9239 26.5988C42.3396 26.7867 42.7235 27.0042 43.0756 27.2516V22.8159C42.3616 22.539 41.5815 22.3338 40.7354 22.2003C39.8893 22.0668 38.9185 22 37.823 22C36.7078 22 35.6515 22.1212 34.6538 22.3635C33.6561 22.6058 32.7782 22.984 32.0201 23.4983C31.262 24.0126 30.6629 24.6678 30.2228 25.464C29.7826 26.26 29.5625 27.2119 29.5625 28.3196C29.5625 29.7339 29.966 30.9404 30.773 31.9394C31.5799 32.9382 32.805 33.7838 34.4484 34.4761C35.0939 34.7431 35.6955 35.0051 36.2531 35.2623C36.8106 35.5195 37.2924 35.7865 37.6982 36.0634C38.1042 36.3403 38.4245 36.6419 38.6593 36.9683C38.8941 37.2946 39.0115 37.6655 39.0115 38.081C39.0115 38.3875 38.9381 38.6718 38.7913 38.9339C38.6446 39.196 38.4221 39.4234 38.1238 39.6163C37.8254 39.8092 37.4537 39.96 37.0087 40.0687C36.5636 40.1776 36.0428 40.2319 35.4461 40.2319C34.4288 40.2319 33.4213 40.0515 32.4236 39.6905C31.4259 39.3295 30.5015 38.7881 29.6505 38.0661ZM21.7606 26.3698H27.7812V22.4741H11V26.3698H16.9912V43.7155H21.7606V26.3698Z" fill="white"/>
</svg>
